<svg xmlns="http://www.w3.org/2000/svg" viewBox="0 0 515.635 368.672">
  <defs>
    <style>
      .cls-1 {
        fill: #707070;
      }

      .cls-2 {
        fill: #cbcaca;
      }

      .cls-3, .cls-5 {
        fill: #313131;
      }

      .cls-4, .cls-5 {
        stroke: none;
      }
    </style>
  </defs>
  <g id="Group_15" data-name="Group 15" transform="translate(-84.365 -155.885)">
    <g id="Path_14" data-name="Path 14" class="cls-1" transform="translate(92.365 164.64)">
      <path class="cls-4" d="M 503.6353149414063 355.9170532226563 L 499.6353149414063 355.9170532226563 L -2.44547518377658e-05 355.9170532226563 L -4.000024318695068 355.9170532226563 L -4.000024318695068 351.9170532226563 L -4.000024318695068 -6.722005309711676e-06 L -4.000024318695068 -4.000006675720215 L -2.44547518377658e-05 -4.000006675720215 L 499.6353149414063 -4.000006675720215 L 503.6353149414063 -4.000006675720215 L 503.6353149414063 -6.722005309711676e-06 L 503.6353149414063 351.9170532226563 L 503.6353149414063 355.9170532226563 Z"/>
      <path class="cls-5" d="M 499.6352844238281 351.9170227050781 L 499.6352844238281 2.661132748471573e-05 L -6.4522873799433e-07 2.661132748471573e-05 L -6.4522873799433e-07 351.9170227050781 L 499.6352844238281 351.9170227050781 M 507.6352844238281 359.9170227050781 L 499.6352844238281 359.9170227050781 L -6.4522873799433e-07 359.9170227050781 L -8.000000953674316 359.9170227050781 L -8.000000953674316 351.9170227050781 L -8.000000953674316 2.661132748471573e-05 L -8.000000953674316 -7.999973297119141 L -6.4522873799433e-07 -7.999973297119141 L 499.6352844238281 -7.999973297119141 L 507.6352844238281 -7.999973297119141 L 507.6352844238281 2.661132748471573e-05 L 507.6352844238281 351.9170227050781 L 507.6352844238281 359.9170227050781 Z"/>
    </g>
    <g id="Path_10" data-name="Path 10" class="cls-2" transform="translate(-1158.592 -844.172)">
      <path class="cls-4" d="M 1441.264404296875 1362.8505859375 C 1441.261474609375 1362.8505859375 1441.262329101563 1362.8505859375 1441.259521484375 1362.8505859375 C 1424.793701171875 1362.850463867188 1406.576782226563 1362.311645507813 1387.114868164063 1361.249267578125 C 1371.559936523438 1360.400146484375 1355.176513671875 1359.21630859375 1338.419677734375 1357.730834960938 C 1309.88671875 1355.201293945313 1289.871704101563 1352.63525390625 1289.672973632813 1352.609741210938 L 1285.757690429688 1352.105102539063 L 1285.748046875 1348.157470703125 C 1285.742065429688 1345.68994140625 1285.15673828125 1100.462158203125 1285.748168945313 1019.764526367188 L 1285.774780273438 1016.132873535156 L 1289.330322265625 1015.392150878906 C 1307.90576171875 1011.522216796875 1328.110473632813 1008.64892578125 1349.38330078125 1006.851989746094 C 1367.417724609375 1005.328674316406 1386.467041015625 1004.556274414063 1406.001953125 1004.556274414063 C 1434.211059570313 1004.556274414063 1458.626953125 1006.183898925781 1474.14208984375 1007.549377441406 C 1490.9853515625 1009.031677246094 1501.010009765625 1010.494079589844 1501.428466796875 1010.555603027344 L 1505.286987304688 1011.122924804688 L 1505.273803710938 1015.022888183594 C 1505.272705078125 1015.357788085938 1505.159790039063 1049.0234375 1505.055053710938 1093.39013671875 C 1504.858154296875 1176.096313476563 1504.624755859375 1320.070068359375 1505.273193359375 1355.068603515625 L 1505.34765625 1359.093994140625 L 1501.35546875 1359.6142578125 C 1484.877807617188 1361.761596679688 1464.65771484375 1362.8505859375 1441.264404296875 1362.8505859375 Z"/>
      <path class="cls-5" d="M 1441.259521484375 1358.3505859375 C 1462.484619140625 1358.350708007813 1483.063354492188 1357.4599609375 1500.77392578125 1355.151977539063 C 1500.13720703125 1320.78515625 1500.33935546875 1183.998168945313 1500.555053710938 1093.379516601563 C 1500.661010742188 1048.496948242188 1500.77392578125 1015.007751464844 1500.77392578125 1015.007751464844 C 1500.77392578125 1015.007751464844 1460.29443359375 1009.056274414063 1406.001953125 1009.056274414063 C 1370.8046875 1009.056274414063 1329.810668945313 1011.555236816406 1290.248046875 1019.797546386719 C 1289.64990234375 1101.406616210938 1290.248046875 1348.146606445313 1290.248046875 1348.146606445313 C 1290.248046875 1348.146606445313 1369.42822265625 1358.35009765625 1441.259521484375 1358.3505859375 M 1441.265502929688 1367.3505859375 L 1441.265380859375 1367.3505859375 C 1369.678833007813 1367.35009765625 1289.895263671875 1357.175537109375 1289.097778320313 1357.07275390625 L 1281.267211914063 1356.063720703125 L 1281.248046875 1348.16845703125 C 1281.242065429688 1345.700561523438 1280.65673828125 1100.450805664063 1281.248291015625 1019.731567382813 L 1281.301513671875 1012.468139648438 L 1288.412353515625 1010.986694335938 C 1323.226196289063 1003.733825683594 1362.7890625 1000.056274414063 1406.001953125 1000.056274414063 C 1460.327758789063 1000.056274414063 1500.403686523438 1005.856567382813 1502.083129882813 1006.103515625 L 1509.800170898438 1007.238098144531 L 1509.773803710938 1015.0380859375 L 1509.555053710938 1093.400756835938 C 1509.358154296875 1176.08935546875 1509.124633789063 1320.027099609375 1509.772338867188 1354.985229492188 L 1509.921508789063 1363.036010742188 L 1501.936889648438 1364.076538085938 C 1485.266357421875 1366.2490234375 1464.853515625 1367.3505859375 1441.265502929688 1367.3505859375 Z"/>
    </g>
    <g id="Path_11" data-name="Path 11" class="cls-2" transform="translate(-947.8 -844.172)">
      <path class="cls-4" d="M 1350.680908203125 1362.8505859375 C 1326.824829101563 1362.8505859375 1306.211181640625 1361.76220703125 1289.412353515625 1359.61572265625 L 1285.4072265625 1359.10400390625 L 1285.483520507813 1355.06689453125 C 1286.11083984375 1321.884155273438 1285.95068359375 1194.450561523438 1285.705932617188 1093.390380859375 C 1285.598022460938 1049.023681640625 1285.48388671875 1015.357971191406 1285.482788085938 1015.023132324219 L 1285.469360351563 1011.111877441406 L 1289.340576171875 1010.553771972656 C 1289.767211914063 1010.492309570313 1299.986450195313 1009.030578613281 1317.159790039063 1007.548645019531 C 1332.97998046875 1006.183532714844 1357.876220703125 1004.556274414063 1386.64013671875 1004.556274414063 C 1406.55859375 1004.556274414063 1425.981811523438 1005.328430175781 1444.3701171875 1006.851379394531 C 1466.05908203125 1008.647705078125 1486.658813476563 1011.520080566406 1505.597045898438 1015.388610839844 L 1509.169067382813 1016.118225097656 L 1509.1962890625 1019.763977050781 C 1509.798950195313 1100.461791992188 1509.202514648438 1345.690063476563 1509.196411132813 1348.15771484375 L 1509.186645507813 1352.114990234375 L 1505.260498046875 1352.611083984375 C 1505.057739257813 1352.63671875 1484.648193359375 1355.202392578125 1455.551025390625 1357.731689453125 C 1438.462890625 1359.217163085938 1421.755493164063 1360.400756835938 1405.89306640625 1361.249755859375 C 1386.047241210938 1362.31201171875 1367.47119140625 1362.8505859375 1350.680908203125 1362.8505859375 Z"/>
      <path class="cls-5" d="M 1350.681030273438 1358.3505859375 C 1423.941162109375 1358.3505859375 1504.696411132813 1348.146606445313 1504.696411132813 1348.146606445313 C 1504.696411132813 1348.146606445313 1505.305908203125 1101.406616210938 1504.696411132813 1019.797546386719 C 1464.346923828125 1011.555236816406 1422.53759765625 1009.056274414063 1386.64013671875 1009.056274414063 C 1331.267578125 1009.056274414063 1289.982666015625 1015.007751464844 1289.982666015625 1015.007751464844 C 1289.982666015625 1015.007751464844 1290.096801757813 1048.496948242188 1290.205932617188 1093.379516601563 C 1290.425415039063 1183.998168945313 1290.632446289063 1320.78515625 1289.982666015625 1355.151977539063 C 1308.045532226563 1357.4599609375 1329.03369140625 1358.3505859375 1350.681030273438 1358.3505859375 M 1350.680908203125 1367.3505859375 C 1326.635009765625 1367.3505859375 1305.829345703125 1366.25 1288.841918945313 1364.079467773438 L 1280.831665039063 1363.055908203125 L 1280.984252929688 1354.98193359375 C 1281.61083984375 1321.844116210938 1281.45068359375 1194.442626953125 1281.205932617188 1093.4013671875 L 1280.982788085938 1015.038452148438 L 1280.9560546875 1007.216003417969 L 1288.698608398438 1006.099792480469 C 1290.410400390625 1005.853088378906 1331.259033203125 1000.056274414063 1386.64013671875 1000.056274414063 C 1430.688720703125 1000.056274414063 1471.014526367188 1003.7314453125 1506.497680664063 1010.979675292969 L 1513.641723632813 1012.43896484375 L 1513.696166992188 1019.730346679688 C 1514.298950195313 1100.450317382813 1513.702514648438 1345.700927734375 1513.696411132813 1348.168823242188 L 1513.676879882813 1356.083374023438 L 1505.824584960938 1357.075561523438 C 1505.011474609375 1357.178344726563 1423.663330078125 1367.3505859375 1350.680908203125 1367.3505859375 Z"/>
    </g>
    <g id="Path_13" data-name="Path 13" class="cls-3" transform="translate(113.603 176.685)">
      <path class="cls-4" d="M 10.27402305603027 332.3812255859375 L 6.714887142181396 330.7166137695313 L -1.187658548355103 327.0205078125 L -2.628522157669067 326.3466186523438 L -2.628522157669067 324.7559814453125 L -2.628522157669067 4.426376342773438 L -2.628522157669067 2.890512704849243 L -1.258476734161377 2.196285486221313 L 6.644068717956543 -1.807850956916809 L 10.27402305603027 -3.647078275680542 L 10.27402305603027 0.4222399592399597 L 10.27402305603027 328.4520568847656 L 10.27402305603027 332.3812255859375 Z"/>
      <path class="cls-5" d="M 7.774023532867432 328.4520568847656 L 7.774023532867432 0.4222399592399597 L -0.1285221576690674 4.426376342773438 L -0.1285221576690674 324.7559814453125 L 7.774023532867432 328.4520568847656 M 12.77402305603027 336.3104553222656 L 5.655704975128174 332.9811401367188 L -2.246840238571167 329.2850646972656 L -5.128522396087646 327.9372863769531 L -5.128522396087646 324.7559814453125 L -5.128522396087646 4.426376342773438 L -5.128522396087646 1.35460364818573 L -2.388431310653687 -0.03376004472374916 L 5.514114379882813 -4.037896633148193 L 12.77402305603027 -7.716396331787109 L 12.77402305603027 0.4222399592399597 L 12.77402305603027 328.4520568847656 L 12.77402305603027 336.3104553222656 Z"/>
    </g>
    <g id="Path_32" data-name="Path 32" class="cls-3" transform="translate(570.239 176.685)">
      <path class="cls-4" d="M -2.628528118133545 328.6412963867188 L -2.628528118133545 324.7176513671875 L -2.628528118133545 0.4222643673419952 L -2.628528118133545 -3.640944004058838 L 0.9984303116798401 -1.809319019317627 L 8.837013244628906 2.149222612380981 L 10.21005535125732 2.842639446258545 L 10.21005535125732 4.380805969238281 L 10.21005535125732 321.0636291503906 L 10.21005535125732 322.6565246582031 L 8.766304969787598 323.3295593261719 L 0.9277219772338867 326.9835510253906 L -2.628528118133545 328.6412963867188 Z"/>
      <path class="cls-5" d="M -0.128554567694664 324.7176208496094 L 7.710081577301025 321.0635986328125 L 7.710081577301025 4.380794525146484 L -0.128554567694664 0.4222491979598999 L -0.128554567694664 324.7176208496094 M -5.128554344177246 332.56494140625 L -5.128554344177246 324.7176208496094 L -5.128554344177246 0.4222491979598999 L -5.128554344177246 -7.704159736633301 L 2.125354528427124 -4.040932655334473 L 9.963991165161133 -0.08238714933395386 L 12.71008205413818 1.304431080818176 L 12.71008205413818 4.380794525146484 L 12.71008205413818 321.0635986328125 L 12.71008205413818 324.2494201660156 L 9.822582244873047 325.5954284667969 L 1.983945488929749 329.2494201660156 L -5.128554344177246 332.56494140625 Z"/>
    </g>
  </g>
</svg>
