<svg xmlns="http://www.w3.org/2000/svg" viewBox="0 0 600.629 123.015">
  <defs>
    <style>
      .cls-1 {
        fill: #cc3734;
      }

      .cls-2 {
        fill: #cbcaca;
      }
    </style>
  </defs>
  <g id="Group_43" data-name="Group 43" transform="translate(-330.97 -3557.456)">
    <path id="Path_52" data-name="Path 52" class="cls-1" d="M2665.926,3470.434s-23.65,67.28-60.348,118.25c2.854,65.241,28.135,177.783,28.135,177.783h34.726l-1.34-121.7s-37.463-18.163-6.066-44.26C2663.479,3549.539,2665.926,3470.434,2665.926,3470.434Z" transform="translate(4402.033 951.893) rotate(90)"/>
    <path id="Path_53" data-name="Path 53" class="cls-1" d="M2605.578,3470.434s23.377,67.28,59.652,118.25c-2.821,65.241-27.811,177.783-27.811,177.783H2603.64l-1.435-121.828s39.244-18.033,8.209-44.13C2608,3549.539,2605.578,3470.434,2605.578,3470.434Z" transform="translate(4402.033 1015.241) rotate(90)"/>
    <path id="Path_54" data-name="Path 54" class="cls-2" d="M0,0H97L93.731,16.489H3.788Z" transform="translate(636.033 3568.893) rotate(90)"/>
    <path id="Path_55" data-name="Path 55" class="cls-2" d="M2.449,0H117.78C122.2,0,120,3.582,120,8V24c0,4.418-9.383,11.731-13.8,11.731H14.754C10.336,35.731,0,28.418,0,24V8C0,3.582-1.969,0,2.449,0Z" transform="translate(620.033 3557.893) rotate(90)"/>
    <path id="Path_56" data-name="Path 56" class="cls-2" d="M0,0H90l4.944,253.063H0Z" transform="translate(584.033 3574.893) rotate(90)"/>
  </g>
</svg>
