<svg xmlns="http://www.w3.org/2000/svg" xmlns:xlink="http://www.w3.org/1999/xlink" viewBox="0 0 1920 144">
  <defs>
    <style>
      .cls-1, .cls-3, .cls-4 {
        fill: none;
      }

      .cls-2 {
        clip-path: url(#clip-path);
      }

      .cls-3 {
        stroke: #cc3734;
        stroke-width: 7px;
      }

      .cls-4 {
        stroke: #cbcaca;
        stroke-width: 6px;
      }
    </style>
    <clipPath id="clip-path">
      <rect class="cls-1" width="1920" height="2"/>
    </clipPath>
  </defs>
  <g id="Group_9" data-name="Group 9" transform="translate(-6.5 -646.5)">
    <g id="Repeat_Grid_1" data-name="Repeat Grid 1" class="cls-2" transform="translate(6.5 717.5)">
      <g transform="translate(-0.5 -673.5)">
        <line id="Line_3" data-name="Line 3" class="cls-3" x2="88" transform="translate(0.5 673.5)"/>
      </g>
      <g transform="translate(107.5 -673.5)">
        <line id="Line_3-2" data-name="Line 3" class="cls-3" x2="88" transform="translate(0.5 673.5)"/>
      </g>
      <g transform="translate(215.5 -673.5)">
        <line id="Line_3-3" data-name="Line 3" class="cls-3" x2="88" transform="translate(0.5 673.5)"/>
      </g>
      <g transform="translate(323.5 -673.5)">
        <line id="Line_3-4" data-name="Line 3" class="cls-3" x2="88" transform="translate(0.5 673.5)"/>
      </g>
      <g transform="translate(431.5 -673.5)">
        <line id="Line_3-5" data-name="Line 3" class="cls-3" x2="88" transform="translate(0.5 673.5)"/>
      </g>
      <g transform="translate(539.5 -673.5)">
        <line id="Line_3-6" data-name="Line 3" class="cls-3" x2="88" transform="translate(0.5 673.5)"/>
      </g>
      <g transform="translate(647.5 -673.5)">
        <line id="Line_3-7" data-name="Line 3" class="cls-3" x2="88" transform="translate(0.5 673.5)"/>
      </g>
      <g transform="translate(755.5 -673.5)">
        <line id="Line_3-8" data-name="Line 3" class="cls-3" x2="88" transform="translate(0.5 673.5)"/>
      </g>
      <g transform="translate(863.5 -673.5)">
        <line id="Line_3-9" data-name="Line 3" class="cls-3" x2="88" transform="translate(0.5 673.5)"/>
      </g>
      <g transform="translate(971.5 -673.5)">
        <line id="Line_3-10" data-name="Line 3" class="cls-3" x2="88" transform="translate(0.5 673.5)"/>
      </g>
      <g transform="translate(1079.5 -673.5)">
        <line id="Line_3-11" data-name="Line 3" class="cls-3" x2="88" transform="translate(0.5 673.5)"/>
      </g>
      <g transform="translate(1187.5 -673.5)">
        <line id="Line_3-12" data-name="Line 3" class="cls-3" x2="88" transform="translate(0.5 673.5)"/>
      </g>
      <g transform="translate(1295.5 -673.5)">
        <line id="Line_3-13" data-name="Line 3" class="cls-3" x2="88" transform="translate(0.5 673.5)"/>
      </g>
      <g transform="translate(1403.5 -673.5)">
        <line id="Line_3-14" data-name="Line 3" class="cls-3" x2="88" transform="translate(0.5 673.5)"/>
      </g>
      <g transform="translate(1511.5 -673.5)">
        <line id="Line_3-15" data-name="Line 3" class="cls-3" x2="88" transform="translate(0.5 673.5)"/>
      </g>
      <g transform="translate(1619.5 -673.5)">
        <line id="Line_3-16" data-name="Line 3" class="cls-3" x2="88" transform="translate(0.5 673.5)"/>
      </g>
      <g transform="translate(1727.5 -673.5)">
        <line id="Line_3-17" data-name="Line 3" class="cls-3" x2="88" transform="translate(0.5 673.5)"/>
      </g>
      <g transform="translate(1835.5 -673.5)">
        <line id="Line_3-18" data-name="Line 3" class="cls-3" x2="88" transform="translate(0.5 673.5)"/>
      </g>
    </g>
    <path id="Path_7" data-name="Path 7" class="cls-4" d="M0,0H1920" transform="translate(6.5 649.5)"/>
    <path id="Path_8" data-name="Path 8" class="cls-4" d="M0,0H1920" transform="translate(6.5 787.5)"/>
  </g>
</svg>
