<svg width="31" height="33" viewBox="0 0 31 33" fill="none" xmlns="http://www.w3.org/2000/svg">
<g clip-path="url(#clip0_225_55)">
<path d="M30.9478 9.70651C30.9476 9.15312 30.8225 8.66413 30.5695 8.24445C30.321 7.83177 29.9489 7.48587 29.4498 7.21239C25.3295 4.96461 21.2053 2.72369 17.0864 0.473618C15.976 -0.132926 14.8994 -0.110814 13.7972 0.504437C12.1572 1.41952 3.94644 5.8703 1.49975 7.21113C0.492125 7.76302 0.00181641 8.60765 0.00157422 9.70547C0 14.2259 0.00157422 18.7462 0 23.2668C0.000242187 23.808 0.120004 24.2875 0.361828 24.7009C0.610434 25.126 0.987762 25.4814 1.49841 25.7611C3.94523 27.102 12.1571 31.5524 13.7967 32.4677C14.8994 33.0833 15.976 33.1053 17.0868 32.4985C21.2058 30.2483 25.3303 28.0075 29.4511 25.7597C29.9617 25.4802 30.3391 25.1246 30.5877 24.6997C30.8291 24.2863 30.9491 23.8069 30.9494 23.2655C30.9494 23.2655 30.9494 14.2271 30.9478 9.70651Z" fill="#5C8DBC"/>
<path d="M15.522 16.4421L0.361832 24.7009C0.610437 25.1261 0.987765 25.4815 1.49842 25.7611C3.94524 27.102 12.1571 31.5524 13.7967 32.4677C14.8994 33.0833 15.976 33.1053 17.0868 32.4985C21.2058 30.2483 25.3303 28.0075 29.4511 25.7598C29.9617 25.4802 30.3391 25.1246 30.5877 24.6997L15.522 16.4421Z" fill="#1A4674"/>
<path d="M11.0318 18.8884C11.9139 20.3455 13.5723 21.3283 15.4747 21.3283C17.3888 21.3283 19.0566 20.3331 19.9343 18.8603L15.522 16.4421L11.0318 18.8884Z" fill="#1A4674"/>
<path d="M30.9478 9.70656C30.9476 9.15318 30.8225 8.66418 30.5695 8.24451L15.522 16.4421L30.5877 24.6998C30.8291 24.2864 30.9491 23.8069 30.9494 23.2656C30.9494 23.2656 30.9494 14.2271 30.9478 9.70656Z" fill="#1B598E"/>
<path d="M30.1194 17.0324H28.9421V18.1465H27.7646V17.0324H26.5875V15.9186H27.7646V14.8047H28.9421V15.9186H30.1194V17.0324ZM25.8236 17.0324H24.6465V18.1465H23.4692V17.0324H22.2919V15.9186H23.4692V14.8047H24.6465V15.9186H25.8236V17.0324Z" fill="white"/>
<path d="M19.9343 18.8603C19.0566 20.3331 17.3888 21.3283 15.4747 21.3283C13.5723 21.3283 11.9139 20.3455 11.0318 18.8884C10.5886 18.1573 10.3559 17.3289 10.3568 16.4861C10.3568 13.8119 12.6482 11.6439 15.4747 11.6439C17.3648 11.6439 19.0145 12.6145 19.901 14.0567L24.3744 11.6195C22.5963 8.71558 19.2768 6.7619 15.4747 6.7619C9.7983 6.7619 5.19686 11.1156 5.19686 16.4861C5.19686 18.248 5.69226 19.9002 6.55808 21.3254C8.33162 24.2447 11.6606 26.2104 15.4747 26.2104C19.2958 26.2104 22.63 24.2367 24.401 21.3089L19.9343 18.8603Z" fill="white"/>
</g>
<defs>
<clipPath id="clip0_225_55">
<rect width="31" height="33" fill="white"/>
</clipPath>
</defs>
</svg>
