<svg width="19" height="28" viewBox="0 0 19 28" fill="none" xmlns="http://www.w3.org/2000/svg">
<path fill-rule="evenodd" clip-rule="evenodd" d="M1.08686 14.8504C1.12712 15.5427 1.83157 15.2262 2.1536 15.0087C2.45551 14.7911 2.55614 14.9691 2.57627 14.5538C2.5964 14.2769 2.61653 14.0198 2.61653 13.7429C2.1536 13.7033 1.65042 13.8022 1.26801 14.0791C1.08686 14.2175 0.704449 14.6724 1.08686 14.8504Z" fill="#F6D2A2"/>
<path d="M1.46928 15.3449C1.32839 15.3449 1.06674 15.2855 1.02649 14.89C0.905724 14.8109 0.86547 14.712 0.86547 14.6527C0.845342 14.4153 1.10699 14.1384 1.24788 14.0395C1.56992 13.8022 1.99259 13.6835 2.43538 13.6835H2.69704V13.7429C2.71716 13.9604 2.69704 14.178 2.67691 14.3758C2.67691 14.4351 2.67691 14.4944 2.65678 14.5538C2.63666 14.8504 2.57627 14.89 2.43538 14.9493C2.375 14.9691 2.31462 14.9889 2.21399 15.068C2.11335 15.1273 1.77119 15.3449 1.46928 15.3449ZM2.43538 13.8022C2.01272 13.8022 1.6303 13.9209 1.32839 14.1384C1.1875 14.2373 0.986232 14.4747 1.00636 14.6329C1.00636 14.6922 1.04661 14.7515 1.12712 14.7911L1.16738 14.8109V14.8504C1.1875 15.1669 1.34852 15.2064 1.46928 15.2064C1.67055 15.2064 1.95233 15.068 2.13348 14.9493C2.25424 14.8702 2.33475 14.8504 2.39513 14.8307C2.49577 14.7911 2.51589 14.7911 2.53602 14.5538C2.53602 14.4944 2.53602 14.4351 2.55615 14.3758C2.57627 14.1978 2.57627 14 2.57627 13.822C2.51589 13.8022 2.47564 13.8022 2.43538 13.8022Z" fill="black"/>
<path fill-rule="evenodd" clip-rule="evenodd" d="M1.08687 14.8504C1.1875 14.8109 1.30827 14.7911 1.36865 14.6922L1.08687 14.8504Z" fill="#C6B198"/>
<path d="M1.08686 14.9098C1.06674 14.9098 1.02648 14.89 1.02648 14.8702C1.00635 14.8307 1.02648 14.7911 1.06674 14.7911C1.08686 14.7911 1.10699 14.7713 1.10699 14.7713C1.1875 14.7318 1.26801 14.712 1.30826 14.6527C1.32839 14.6329 1.36864 14.6131 1.4089 14.6329C1.42902 14.6527 1.44915 14.6922 1.42902 14.7318C1.34852 14.8307 1.24788 14.8702 1.16737 14.89L1.12712 14.9098H1.08686Z" fill="black"/>
<path fill-rule="evenodd" clip-rule="evenodd" d="M2.73729 6.48439C-1.19209e-06 5.73282 2.03284 2.31123 4.22669 3.71547L2.73729 6.48439Z" fill="#6AD7E5"/>
<path d="M2.77754 6.56347L2.71716 6.54369C1.30826 6.14813 1.32839 5.15924 1.36864 4.86257C1.46928 4.111 2.19385 3.31989 3.15996 3.31989C3.54237 3.31989 3.90466 3.43855 4.26695 3.67589L4.32733 3.71544L2.77754 6.56347ZM3.15996 3.45833C2.25423 3.45833 1.59004 4.19012 1.4894 4.88234C1.38877 5.59435 1.83157 6.14813 2.69703 6.40525L4.12606 3.73522C3.82415 3.55722 3.50212 3.45833 3.15996 3.45833Z" fill="black"/>
<path fill-rule="evenodd" clip-rule="evenodd" d="M14.8739 3.45836C17.0275 1.97501 19 5.33727 16.4841 6.18772L14.8739 3.45836Z" fill="#6AD7E5"/>
<path d="M16.464 6.26684L14.7934 3.43859L14.8538 3.39904C15.2362 3.14192 15.6186 3.00348 16.0011 3.00348C16.9269 3.00348 17.5911 3.75504 17.732 4.48683C17.7924 4.7835 17.8528 5.79217 16.5244 6.22729L16.464 6.26684ZM14.9746 3.49793L16.5244 6.1284C17.3093 5.85151 17.7119 5.25817 17.5911 4.54616C17.4703 3.87371 16.8464 3.18148 16.0011 3.18148C15.6589 3.1617 15.3167 3.26059 14.9746 3.49793Z" fill="black"/>
<path fill-rule="evenodd" clip-rule="evenodd" d="M15.357 23.4736C15.9004 23.8099 16.9068 24.8185 16.0816 25.313C15.2966 26.025 14.8538 24.5219 14.1494 24.3241C14.4513 23.9285 14.8337 23.5527 15.357 23.4736Z" fill="#F6D2A2"/>
<path d="M15.6589 25.5701C15.3369 25.5701 15.0551 25.2537 14.8136 24.957C14.5922 24.7197 14.3708 24.4625 14.1292 24.3834L14.0286 24.3636L14.089 24.2845C14.3305 23.9483 14.7331 23.5132 15.3369 23.4143H15.357L15.3771 23.4341C15.7193 23.6516 16.464 24.2648 16.4439 24.8383C16.4439 25.0559 16.3231 25.2339 16.1017 25.3723C15.9608 25.5108 15.8199 25.5701 15.6589 25.5701ZM14.25 24.2845C14.4915 24.3834 14.6928 24.6405 14.8941 24.8581C15.1356 25.1548 15.3771 25.4119 15.6388 25.4119C15.7595 25.4119 15.8803 25.3525 16.0011 25.2339H16.0212C16.2023 25.1152 16.303 24.9768 16.303 24.7988C16.303 24.3439 15.7193 23.7703 15.3167 23.5132C14.9545 23.6121 14.5922 23.8494 14.25 24.2845ZM16.0816 25.3723C16.0614 25.3723 16.0413 25.3525 16.0212 25.3328C15.9809 25.2537 15.9407 25.1548 15.9206 25.0757C15.8602 24.9174 15.7998 24.7592 15.679 24.6405C15.6589 24.6208 15.6589 24.5812 15.679 24.5416C15.6992 24.5219 15.7394 24.5219 15.7797 24.5416C15.9206 24.6801 16.0011 24.8581 16.0614 25.0361L16.1621 25.2734C16.1822 25.313 16.1621 25.3525 16.1419 25.3723H16.0816Z" fill="black"/>
<path fill-rule="evenodd" clip-rule="evenodd" d="M5.53496 24.6208C4.89089 24.7197 4.5286 25.2932 3.98517 25.5899C3.48199 25.8866 3.28072 25.491 3.24047 25.4119C3.15996 25.3723 3.15996 25.4514 3.0392 25.3328C2.57627 24.601 3.52225 24.067 4.02543 23.711C4.72988 23.5528 5.17267 24.1461 5.53496 24.6208Z" fill="#F6D2A2"/>
<path d="M3.64301 25.7481C3.38136 25.7481 3.24047 25.5305 3.20021 25.4514H3.18009C3.1197 25.4514 3.07945 25.4316 2.99894 25.3525V25.3327C2.55615 24.6405 3.32098 24.1065 3.82415 23.7505L4.0053 23.6318H4.04555C4.12606 23.6121 4.18644 23.6121 4.26695 23.6121C4.87076 23.6121 5.25318 24.1263 5.57521 24.5416L5.67585 24.6801L5.55509 24.6998C5.17267 24.7592 4.89089 24.9965 4.60911 25.2339C4.42797 25.3921 4.24682 25.5305 4.04555 25.6492C3.88454 25.7085 3.76377 25.7481 3.64301 25.7481ZM3.20021 25.3327C3.22034 25.3327 3.24047 25.3327 3.28072 25.3525H3.30085L3.32098 25.3723C3.36123 25.4316 3.46187 25.6096 3.66314 25.6096C3.76377 25.6096 3.86441 25.5701 3.96504 25.5107C4.16632 25.4119 4.34746 25.2536 4.50848 25.1152C4.77013 24.8976 5.05191 24.6603 5.4142 24.5614C5.11229 24.1658 4.75 23.7307 4.24682 23.7307C4.18644 23.7307 4.12606 23.7307 4.06568 23.7505L3.90466 23.8692C3.38136 24.2252 2.73729 24.6801 3.1197 25.2734C3.13983 25.313 3.15996 25.3327 3.20021 25.3327ZM3.24047 25.4712C3.20021 25.4712 3.15996 25.4316 3.18009 25.3921C3.20021 25.1943 3.30085 25.0559 3.40148 24.8976C3.46187 24.8185 3.50212 24.7394 3.54237 24.6603C3.5625 24.6207 3.60276 24.6207 3.62288 24.6207C3.66314 24.6405 3.66314 24.6801 3.66314 24.6998C3.62288 24.7987 3.5625 24.8779 3.50212 24.957C3.40148 25.0954 3.32098 25.2141 3.30085 25.3723C3.30085 25.4514 3.28072 25.4712 3.24047 25.4712Z" fill="black"/>
<path fill-rule="evenodd" clip-rule="evenodd" d="M2.85805 5.55481C2.49576 5.37681 2.23411 5.11969 2.45551 4.70436C2.65678 4.32857 3.0392 4.36813 3.40148 4.54613L2.85805 5.55481ZM15.9206 5.1988C16.2828 5.0208 16.5445 4.76369 16.3231 4.34835C16.1218 3.97257 15.7394 4.01213 15.3771 4.19013L15.9206 5.1988Z" fill="black"/>
<path fill-rule="evenodd" clip-rule="evenodd" d="M18.3962 14.7516C18.3559 15.4438 17.6515 15.1273 17.3294 14.9098C17.0275 14.6922 16.9269 14.8702 16.9068 14.4549C16.8867 14.178 16.8665 13.9209 16.8665 13.644C17.3294 13.6044 17.8326 13.7033 18.215 13.9802C18.4163 14.1384 18.7786 14.5735 18.3962 14.7516Z" fill="#F6D2A2"/>
<path d="M18.0339 15.246C17.732 15.246 17.3898 15.0284 17.2892 14.9691C17.1886 14.9098 17.1282 14.8702 17.0678 14.8504C16.9068 14.7911 16.8665 14.7516 16.8464 14.4549C16.8464 14.3956 16.8464 14.3362 16.8263 14.2769C16.8061 14.0791 16.786 13.8615 16.8061 13.644V13.5847H17.0678C17.5106 13.5847 17.9333 13.7033 18.2553 13.9407C18.3962 14.0395 18.6578 14.3164 18.6377 14.5538C18.6377 14.6329 18.5975 14.7318 18.4767 14.7911C18.4364 15.1867 18.1748 15.246 18.0339 15.246ZM16.9269 13.7231C16.9269 13.9011 16.9269 14.0989 16.947 14.2769C16.947 14.3362 16.947 14.3956 16.9672 14.4549C16.9873 14.6922 17.0074 14.6922 17.108 14.7318C17.1684 14.7516 17.2489 14.7911 17.3697 14.8504C17.5508 14.9691 17.8326 15.1076 18.0339 15.1076C18.1547 15.1076 18.3157 15.068 18.3358 14.7516V14.712L18.3761 14.6922C18.4566 14.6527 18.4968 14.6131 18.4968 14.534C18.5169 14.3758 18.3157 14.1384 18.1748 14.0395C17.8729 13.822 17.4703 13.7033 17.0678 13.7033C17.0275 13.7231 16.9873 13.7231 16.9269 13.7231Z" fill="black"/>
<path fill-rule="evenodd" clip-rule="evenodd" d="M18.3962 14.7515C18.2955 14.712 18.1748 14.6922 18.1144 14.5933L18.3962 14.7515Z" fill="#C6B198"/>
<path d="M18.3962 14.8307H18.3761L18.3358 14.8109C18.2352 14.7713 18.1345 14.7515 18.0741 14.6527C18.054 14.6329 18.054 14.5735 18.0943 14.5538C18.1144 14.534 18.1748 14.534 18.1949 14.5735C18.2352 14.6329 18.3157 14.6527 18.3962 14.6922C18.4163 14.6922 18.4364 14.712 18.4364 14.712C18.4767 14.7318 18.4968 14.7713 18.4767 14.7911C18.4566 14.8109 18.4163 14.8307 18.3962 14.8307Z" fill="black"/>
<path fill-rule="evenodd" clip-rule="evenodd" d="M9.47987 2.05414C12.2172 2.05414 14.7733 2.42992 16.1218 5.02083C17.3294 7.90842 16.8867 11.0333 17.0879 14.0989C17.2489 16.7294 17.5911 19.7554 16.3633 22.1881C15.0551 24.7395 11.7945 25.3921 9.11759 25.2932C7.00424 25.2141 4.46822 24.5417 3.26059 22.643C1.87182 20.4279 2.51589 17.1249 2.61653 14.6527C2.73729 11.7256 1.81144 8.77865 2.79767 5.93062C3.7839 2.94415 6.52119 2.2717 9.47987 2.05414Z" fill="#6AD7E5"/>
<path d="M9.58051 25.3723H9.07733C8.25212 25.3526 7.00424 25.2141 5.77648 24.7197C4.58898 24.245 3.72352 23.5726 3.15996 22.6825C2.03284 20.8827 2.23411 18.4105 2.41526 16.2151C2.45551 15.6614 2.49576 15.1471 2.51589 14.6527C2.55615 13.6242 2.47564 12.5562 2.375 11.5476C2.21398 9.68842 2.05297 7.76996 2.67691 5.91083C3.15996 4.52637 4.02543 3.53748 5.33369 2.90458C6.36017 2.41013 7.62818 2.13324 9.43962 1.99479C12.1367 1.97502 14.8136 2.3508 16.1621 4.98127C17.0477 7.09751 17.0477 9.37197 17.0678 11.5673C17.0678 12.398 17.0678 13.2485 17.1282 14.0791C17.1483 14.3362 17.1684 14.5934 17.1684 14.8505C17.3294 17.2634 17.5106 19.9927 16.3835 22.2079C15.8199 23.3352 14.8337 24.1659 13.4852 24.6999C12.3983 25.135 11.0297 25.3723 9.58051 25.3723ZM9.47987 2.11346C6.64195 2.33102 3.86441 2.94414 2.83793 5.95039C2.21398 7.78974 2.375 9.68842 2.53602 11.5278C2.61653 12.5562 2.71716 13.6045 2.67691 14.6527C2.65678 15.1471 2.61653 15.6614 2.57627 16.2151C2.39513 18.3907 2.19386 20.8432 3.30085 22.6034C3.76377 23.3352 5.25318 25.0757 9.09746 25.2141H9.60064C14.0487 25.2141 15.6992 23.2759 16.303 22.1288C17.41 19.9532 17.2288 17.2238 17.0879 14.8307C17.0678 14.5736 17.0477 14.3165 17.0477 14.0594C17.0074 13.2287 16.9873 12.3782 16.9873 11.5476C16.9672 9.37198 16.9672 7.09751 16.1017 5.00104C15.4979 3.83415 14.5922 3.04303 13.3443 2.58813C12.0561 2.1728 10.607 2.11346 9.47987 2.11346Z" fill="black"/>
<path fill-rule="evenodd" clip-rule="evenodd" d="M9.96292 5.65368C10.446 8.46215 15.1155 7.71059 14.4513 4.88234C13.8475 2.35076 9.8019 3.06277 9.96292 5.65368Z" fill="white"/>
<path d="M12.1769 7.49304C11.2712 7.49304 10.1239 7.01837 9.88242 5.67347C9.84216 5.04058 10.0434 4.46701 10.4661 4.0319C10.929 3.53745 11.6335 3.26056 12.3581 3.26056C13.2034 3.26056 14.2097 3.69567 14.4915 4.90213C14.6525 5.57458 14.5318 6.16792 14.1494 6.64259C13.7267 7.15682 12.982 7.49304 12.1769 7.49304ZM10.0233 5.65369C10.1239 6.20748 10.3856 6.64259 10.8083 6.95904C11.1706 7.23593 11.6737 7.37438 12.1769 7.37438C12.9216 7.37438 13.6462 7.05793 14.0487 6.56348C14.411 6.12836 14.5117 5.5548 14.3708 4.92191C14.1091 3.79456 13.1631 3.399 12.3581 3.399C11.6737 3.399 11.0095 3.6759 10.5667 4.13079C10.1843 4.52635 9.98305 5.06035 10.0233 5.65369Z" fill="black"/>
<path fill-rule="evenodd" clip-rule="evenodd" d="M4.38771 6.10857C5.03178 8.54126 8.99682 7.92815 8.85593 5.47568C8.67479 2.54854 3.76377 3.10232 4.38771 6.10857Z" fill="white"/>
<path d="M6.50106 7.73041C5.63559 7.73041 4.62924 7.31507 4.3072 6.1284C4.16631 5.43617 4.3072 4.80327 4.70975 4.3286C5.15254 3.7946 5.87712 3.47815 6.66208 3.47815C7.70869 3.47815 8.81568 4.09127 8.89619 5.47572C8.93644 6.04928 8.7553 6.56351 8.35275 6.97885C7.93008 7.43374 7.22564 7.73041 6.50106 7.73041ZM6.66208 3.6166C5.91737 3.6166 5.23305 3.91326 4.81038 4.40771C4.42797 4.86261 4.3072 5.43617 4.44809 6.08884C4.72987 7.19641 5.69597 7.59197 6.50106 7.59197C7.18538 7.59197 7.84958 7.33485 8.27225 6.87996C8.63453 6.50418 8.81568 6.00973 8.77542 5.47572C8.73517 4.62527 8.15148 3.6166 6.66208 3.6166Z" fill="black"/>
<path fill-rule="evenodd" clip-rule="evenodd" d="M10.5265 9.01596C10.5265 9.37197 10.607 9.7873 10.5466 10.1829C10.446 10.3609 10.2648 10.3806 10.1038 10.44C9.88241 10.4004 9.70127 10.262 9.60063 10.0642C9.54025 9.62908 9.62076 9.19397 9.64089 8.75885L10.5265 9.01596Z" fill="white"/>
<path d="M10.1038 10.5191C9.84216 10.4795 9.64089 10.3213 9.54025 10.1038C9.5 9.78731 9.52013 9.49064 9.54025 9.19397C9.56038 9.05553 9.56038 8.91708 9.56038 8.77864V8.69952L10.5869 9.01597V9.05553C10.5869 9.1742 10.607 9.29286 10.607 9.43131C10.6271 9.68842 10.6472 9.96531 10.607 10.2224V10.2422C10.5265 10.4004 10.3856 10.44 10.2447 10.4993C10.2044 10.4795 10.1642 10.4993 10.1038 10.5191ZM9.66102 10.0444C9.74153 10.2224 9.90254 10.3411 10.0837 10.3807C10.1239 10.3609 10.1642 10.3609 10.1843 10.3411C10.3051 10.3015 10.4057 10.262 10.4661 10.1631C10.5064 9.92576 10.4862 9.66864 10.4661 9.41153C10.4661 9.29286 10.446 9.1742 10.446 9.07531L9.68114 8.83797C9.68114 8.95664 9.66102 9.07531 9.66102 9.1742C9.64089 9.49064 9.62076 9.76753 9.66102 10.0444Z" fill="black"/>
<path fill-rule="evenodd" clip-rule="evenodd" d="M6.15889 5.71298C6.15889 6.10854 5.85699 6.42499 5.4947 6.42499C5.13241 6.42499 4.83051 6.10854 4.83051 5.71298C4.83051 5.31742 5.13241 5.00098 5.4947 5.00098C5.85699 5.00098 6.15889 5.31742 6.15889 5.71298Z" fill="black"/>
<path fill-rule="evenodd" clip-rule="evenodd" d="M5.9375 5.87124C5.9375 5.97013 5.85699 6.04924 5.77648 6.04924C5.69597 6.04924 5.61546 5.97013 5.61546 5.87124C5.61546 5.77235 5.69597 5.69324 5.77648 5.69324C5.87712 5.69324 5.9375 5.77235 5.9375 5.87124Z" fill="white"/>
<path fill-rule="evenodd" clip-rule="evenodd" d="M11.7744 5.535C11.7744 5.93056 11.4725 6.24701 11.1102 6.24701C10.7479 6.24701 10.446 5.93056 10.446 5.535C10.446 5.13945 10.7479 4.823 11.1102 4.823C11.4725 4.823 11.7744 5.13945 11.7744 5.535Z" fill="black"/>
<path fill-rule="evenodd" clip-rule="evenodd" d="M11.5731 5.6932C11.5731 5.79209 11.5127 5.8712 11.4121 5.8712C11.3316 5.8712 11.2511 5.79209 11.2511 5.6932C11.2511 5.59431 11.3114 5.5152 11.4121 5.5152C11.4926 5.5152 11.5731 5.59431 11.5731 5.6932ZM8.59428 8.97634C8.29237 9.66857 8.7553 11.0728 9.56038 10.0444C9.5 9.60924 9.58051 9.17412 9.60064 8.73901L8.59428 8.97634Z" fill="white"/>
<path d="M9.01695 10.4795C8.87606 10.4795 8.73517 10.4004 8.63453 10.2422C8.41313 9.92577 8.37288 9.33243 8.5339 8.95665L8.55403 8.91709L9.66102 8.6402V8.71931L9.64089 9.15443C9.62076 9.45109 9.60063 9.72799 9.64089 10.0247V10.0444L9.62076 10.0642C9.41949 10.3411 9.21822 10.4795 9.01695 10.4795ZM8.65466 9.03576C8.5339 9.37198 8.57415 9.90599 8.7553 10.1631C8.8358 10.2818 8.91631 10.3411 9.01695 10.3411C9.15784 10.3411 9.31886 10.2224 9.47987 10.0247C9.43962 9.72799 9.45975 9.43132 9.5 9.15443L9.52013 8.8182L8.65466 9.03576Z" fill="black"/>
<path fill-rule="evenodd" clip-rule="evenodd" d="M8.69492 7.63148C8.15149 7.67104 7.70869 8.32371 7.99047 8.81816C8.37288 9.49061 9.1981 8.75882 9.7214 8.81816C10.3252 8.83794 10.8083 9.45105 11.2913 8.93683C11.8347 8.36326 11.0498 7.80948 10.4661 7.55237L8.69492 7.63148Z" fill="#F6D2A2"/>
<path d="M10.8686 9.21372C10.6875 9.21372 10.5064 9.13461 10.3252 9.0555C10.1441 8.97639 9.9428 8.89728 9.7214 8.89728H9.66102C9.5 8.89728 9.31886 8.95661 9.11759 9.03572C8.89619 9.11483 8.67479 9.17417 8.47352 9.17417C8.23199 9.17417 8.05085 9.07528 7.93009 8.85772C7.7892 8.62039 7.80932 8.34349 7.95021 8.08638C8.11123 7.78971 8.39301 7.61171 8.69492 7.57215L10.4862 7.49304H10.5064C10.9492 7.67104 11.4523 8.00727 11.553 8.40283C11.5932 8.60061 11.5328 8.79839 11.3718 8.97639C11.2108 9.15439 11.0498 9.21372 10.8686 9.21372ZM9.74153 8.77861C9.96293 8.77861 10.1843 8.8775 10.3856 8.95661C10.5667 9.03572 10.7278 9.09506 10.8888 9.09506C11.0297 9.09506 11.1504 9.03572 11.2712 8.91706C11.4121 8.77861 11.4523 8.62039 11.4322 8.46216C11.3517 8.12594 10.8686 7.80949 10.4862 7.65127L8.73517 7.73038C8.47352 7.75016 8.23199 7.92816 8.0911 8.16549C7.97034 8.38305 7.97034 8.62039 8.07098 8.81817C8.17161 8.99617 8.29238 9.07528 8.49365 9.07528C8.67479 9.07528 8.87606 8.99617 9.07733 8.93683C9.29873 8.85772 9.47988 8.79839 9.68115 8.79839C9.68115 8.75883 9.70127 8.75883 9.74153 8.77861Z" fill="#231F20"/>
<path fill-rule="evenodd" clip-rule="evenodd" d="M8.63453 7.61174C8.59428 6.68217 10.4057 6.56351 10.607 7.33485C10.8284 8.12596 8.71504 8.30397 8.63453 7.61174Z" fill="black"/>
</svg>
