<svg width="27" height="16" viewBox="0 0 27 16" fill="none" xmlns="http://www.w3.org/2000/svg">
<g clip-path="url(#clip0_431_2)">
<path d="M1.08854 14.324L0 0.0267334L13 0.0554645L11.849 14.324L6.54906 15.9733L1.08854 14.324Z" fill="#E34F26"/>
<path d="M6.54906 14.5925V1.38837L11.9025 1.40752L10.9479 13.2212L6.54906 14.5925Z" fill="#EF652A"/>
<path d="M10.4304 4.68705L10.582 2.94177H2.3466L2.8016 8.29252H8.48522L8.26234 10.5747L6.44213 11.102L4.59518 10.5267L4.49706 9.16504H2.86409L3.08718 11.9459L6.44202 12.9527L9.8236 11.9459L10.2786 6.51851H4.3096L4.14008 4.68705H10.4304Z" fill="white"/>
</g>
<g clip-path="url(#clip1_431_2)">
<path d="M15.0885 14.3239L14 0.0268555L27 0.0555866L25.849 14.3239L20.5491 15.9732L15.0885 14.3239Z" fill="#1B73BA"/>
<path d="M20.5491 14.5924V1.38849L25.9025 1.40764L24.9479 13.2212L20.5491 14.5924Z" fill="#1C88C7"/>
<path d="M24.5731 3.07617H16.3377L16.5608 4.80207H20.4688L16.6233 6.57607L16.8463 8.2445H22.5121L22.3068 10.5745L20.3885 10.9773L18.6487 10.4979L18.5148 9.1746H16.9177L17.1317 11.9267L20.558 12.9527L23.8415 11.8308L24.2609 6.45134H20.7899L24.573 4.76376L24.5731 3.07617Z" fill="white"/>
</g>
<defs>
<clipPath id="clip0_431_2">
<rect width="13" height="16" fill="white"/>
</clipPath>
<clipPath id="clip1_431_2">
<rect width="13" height="16" fill="white" transform="translate(14)"/>
</clipPath>
</defs>
</svg>
