<svg width="28" height="28" viewBox="0 0 28 28" fill="none" xmlns="http://www.w3.org/2000/svg">
<g clip-path="url(#clip0_225_50)">
<path d="M0 0H28V28H0V0Z" fill="#F0DB4F"/>
<path d="M25.7084 21.3221C25.5034 20.0445 24.6703 18.9719 22.203 17.9711C21.346 17.5772 20.3905 17.2951 20.1057 16.6457C20.0046 16.2677 19.9913 16.0548 20.0551 15.8259C20.2388 15.0833 21.1251 14.8517 21.8278 15.0647C22.2802 15.2164 22.7087 15.5651 22.9669 16.1213C24.1753 15.3388 24.1726 15.3441 25.0163 14.8065C24.7076 14.3274 24.5426 14.1065 24.3403 13.9016C23.6137 13.0898 22.6236 12.6719 21.0399 12.7039C20.7658 12.7385 20.489 12.7757 20.2148 12.8103C19.4244 13.0099 18.6711 13.4251 18.2293 13.9814C16.9038 15.4852 17.2817 18.1175 18.8947 19.2008C20.4837 20.3932 22.8179 20.6647 23.116 21.7799C23.4061 23.1453 22.1126 23.5871 20.827 23.4301C19.8795 23.2331 19.3525 22.7514 18.7829 21.8757C17.7342 22.4826 17.7342 22.4826 16.6563 23.1027C16.9118 23.6616 17.1806 23.9145 17.6092 24.3989C19.6373 26.4563 24.7129 26.3552 25.6232 23.2411C25.6605 23.1346 25.9053 22.4213 25.7084 21.3221ZM15.2217 12.8688H12.6027C12.6027 15.1312 12.592 17.3776 12.592 19.6399C12.592 21.0799 12.6666 22.4 12.4323 22.8046C12.0491 23.6004 11.0563 23.5019 10.6038 23.3475C10.1434 23.1213 9.90915 22.7992 9.63767 22.3441C9.56315 22.2137 9.50725 22.1126 9.4886 22.1046C8.77798 22.5384 8.06996 22.9749 7.35932 23.4088C7.71334 24.1354 8.23498 24.7662 8.90304 25.176C9.90114 25.7749 11.2426 25.9586 12.6453 25.6365C13.5582 25.3703 14.346 24.8194 14.7586 23.981C15.3548 22.8818 15.227 21.551 15.2217 20.0791C15.235 17.6784 15.2217 15.2776 15.2217 12.8688Z" fill="#323330"/>
</g>
<defs>
<clipPath id="clip0_225_50">
<rect width="28" height="28" fill="white"/>
</clipPath>
</defs>
</svg>
