<svg width="40" height="38" viewBox="0 0 40 38" fill="none" xmlns="http://www.w3.org/2000/svg">
<g clip-path="url(#clip0_229_107)">
<path d="M12.8258 37.3768C11.8967 37.3768 11.0194 36.9737 10.4258 36.2428L1.39375 25.2801C0.800157 24.5492 0.567969 23.6169 0.800157 22.7094L4.02594 9.02505C4.23234 8.11777 4.85172 7.38687 5.70344 6.98373L18.7614 0.884796C19.1744 0.68338 19.6389 0.58252 20.1034 0.58252C20.568 0.58252 21.0323 0.683228 21.4453 0.884949L34.5034 6.95856C35.355 7.36169 35.9744 8.09259 36.1808 8.99988L39.4066 22.6843C39.6131 23.5916 39.4066 24.524 38.8131 25.2549L29.7808 36.2176C29.1872 36.9232 28.3098 37.3516 27.3808 37.3516L12.8261 37.3768H12.8258Z" fill="#326DE6"/>
<path d="M20.0773 1.21255C20.4387 1.21255 20.8 1.28809 21.1355 1.4393L34.1936 7.51291C34.8645 7.84051 35.3806 8.44537 35.5355 9.15109L38.7613 22.8355C38.9419 23.5664 38.7613 24.3225 38.2709 24.902L29.2388 35.8648C28.7742 36.4443 28.0516 36.7719 27.3033 36.7719H12.8258C12.0773 36.7719 11.3548 36.4443 10.8903 35.8648L1.85813 24.902C1.39359 24.3225 1.21281 23.5664 1.36781 22.8355L4.59359 9.15109C4.77422 8.4202 5.26453 7.81534 5.93547 7.51291L18.9937 1.41428C19.3292 1.28824 19.7162 1.21271 20.0775 1.21271L20.0773 1.21255ZM20.0773 0.0280151C19.5355 0.0280151 18.9936 0.154053 18.4773 0.380798L5.41937 6.47974C4.38703 6.95856 3.66453 7.84051 3.40641 8.92419L0.180625 22.6087C-0.0773436 23.6924 0.180625 24.8013 0.903281 25.6834L9.93547 36.6461C10.6323 37.5028 11.6903 37.9817 12.8 37.9817H27.2773C28.387 37.9817 29.4452 37.5028 30.1419 36.6461L39.1742 25.6832C39.8967 24.8264 40.1548 23.6924 39.8967 22.6086L36.6709 8.92419C36.413 7.84051 35.6903 6.95856 34.6581 6.47974L21.6516 0.380646C21.1613 0.154053 20.6194 0.0280151 20.0773 0.0280151Z" fill="white"/>
<path d="M33.1612 21.7518C33.1355 21.7518 33.1355 21.7518 33.1612 21.7518H33.1355C33.1097 21.7518 33.0839 21.7518 33.0839 21.7266C33.0323 21.7266 32.9808 21.7014 32.9291 21.7014C32.7484 21.6762 32.5936 21.6511 32.4387 21.6511C32.3612 21.6511 32.2839 21.6511 32.1806 21.6257H32.1548C31.613 21.5754 31.1742 21.525 30.7612 21.399C30.5806 21.3233 30.5291 21.2226 30.4773 21.1217C30.4773 21.0966 30.4516 21.0966 30.4516 21.0714L30.1161 20.9707C30.2746 19.7851 30.2134 18.5814 29.9355 17.4171C29.6537 16.243 29.1647 15.1258 28.4903 14.1157L28.7484 13.8889V13.8386C28.7484 13.7125 28.7742 13.5865 28.8773 13.4604C29.187 13.1832 29.5742 12.9565 30.0387 12.6792C30.1161 12.6288 30.1934 12.6037 30.2709 12.5532C30.4258 12.4776 30.5548 12.4021 30.7097 12.3012C30.7355 12.2761 30.787 12.2509 30.8387 12.2005C30.8645 12.1752 30.8903 12.1752 30.8903 12.15C31.2516 11.8476 31.3291 11.3436 31.0709 11.0158C30.9419 10.8394 30.7097 10.7387 30.4773 10.7387C30.2711 10.7387 30.0903 10.8143 29.9097 10.9403L29.8581 10.9907C29.8066 11.0158 29.7806 11.0663 29.7291 11.0915C29.6 11.2176 29.4967 11.3183 29.3936 11.4443C29.342 11.4947 29.2905 11.5703 29.213 11.6207C28.8516 11.9988 28.5161 12.3012 28.1806 12.528C28.1033 12.5783 28.0259 12.6037 27.9484 12.6037C27.8969 12.6037 27.8452 12.6037 27.7936 12.5783H27.742L27.4322 12.7801C27.0967 12.4273 26.7355 12.1248 26.3742 11.8224C24.8187 10.635 22.9466 9.90893 20.9806 9.73059L20.9548 9.40298L20.9033 9.35263C20.8258 9.27695 20.7227 9.20142 20.6967 9.02502C20.6709 8.62173 20.7227 8.16809 20.7742 7.66409V7.63892C20.7742 7.56323 20.8 7.46252 20.8258 7.38684C20.8516 7.23578 20.8773 7.08441 20.9033 6.90802V6.68127C20.9033 6.22763 20.5419 5.84967 20.1033 5.84967C19.8967 5.84967 19.6903 5.95038 19.5355 6.10159C19.3808 6.25281 19.3033 6.45438 19.3033 6.68127V6.88284C19.3033 7.05923 19.3291 7.21045 19.3806 7.36166C19.4064 7.43735 19.4064 7.51288 19.4322 7.61374V7.63892C19.4838 8.14291 19.5613 8.59656 19.5097 8.99985C19.4839 9.17624 19.3806 9.25177 19.3033 9.32745L19.2517 9.37781L19.2258 9.70541C18.7613 9.75577 18.2967 9.80612 17.8322 9.90698C15.8452 10.3354 14.0903 11.3184 12.7227 12.7296L12.4645 12.5532H12.413C12.3614 12.5532 12.3097 12.5783 12.2581 12.5783C12.1806 12.5783 12.1033 12.5532 12.0258 12.5028C11.6903 12.2761 11.3548 11.9483 10.9936 11.5703C10.942 11.52 10.8905 11.4443 10.813 11.394C10.7097 11.2679 10.6064 11.1671 10.4773 11.0412C10.4516 11.0158 10.4 10.9908 10.3484 10.9403C10.3227 10.9151 10.2969 10.9151 10.2969 10.89C10.137 10.761 9.93645 10.6897 9.72906 10.6882C9.49672 10.6882 9.26453 10.7891 9.13547 10.9655C8.87734 11.2931 8.95484 11.7971 9.3161 12.0995C9.34188 12.0995 9.34188 12.1248 9.36766 12.1248C9.41922 12.15 9.44516 12.2004 9.49672 12.2256C9.65156 12.3263 9.78063 12.4019 9.93547 12.4776C10.013 12.5028 10.0903 12.5532 10.1678 12.6037C10.6322 12.8808 11.0194 13.1077 11.3291 13.3849C11.4581 13.5108 11.4581 13.6368 11.4581 13.7629V13.8132L11.7161 14.0401C11.6645 14.1157 11.613 14.1662 11.587 14.2417C10.2967 16.2327 9.80641 18.5764 10.1419 20.895L9.80641 20.9957C9.80641 21.021 9.78063 21.021 9.78063 21.0461C9.72906 21.1469 9.65156 21.2478 9.49672 21.3233C9.10969 21.4493 8.64516 21.4998 8.10328 21.5502H8.07734C8 21.5502 7.89672 21.5502 7.81938 21.5754C7.66453 21.5754 7.50969 21.6006 7.32906 21.6257C7.2775 21.6257 7.22594 21.6511 7.17422 21.6511C7.14844 21.6511 7.12266 21.6511 7.09672 21.6762C6.63219 21.7769 6.34828 22.2054 6.42578 22.6086C6.50328 22.9615 6.83875 23.1884 7.25156 23.1884C7.32906 23.1884 7.38063 23.1884 7.45813 23.1631C7.48391 23.1631 7.50969 23.1631 7.50969 23.1379C7.56125 23.1379 7.61281 23.1127 7.66438 23.1127C7.84516 23.0623 7.97422 23.012 8.12906 22.9363C8.20641 22.9111 8.28375 22.8606 8.36125 22.8356H8.38703C8.87734 22.6591 9.31609 22.5078 9.72906 22.4575H9.78063C9.93547 22.4575 10.0388 22.533 10.1161 22.5835C10.1419 22.5835 10.1419 22.6087 10.1677 22.6087L10.5291 22.5584C11.1484 24.4231 12.3355 26.0865 13.9097 27.2962C14.2709 27.5733 14.6322 27.8002 15.0194 28.0271L14.8645 28.3546C14.8645 28.3799 14.8903 28.3799 14.8903 28.4049C14.9419 28.5058 14.9934 28.6318 14.9419 28.8082C14.7872 29.1863 14.5548 29.5643 14.2709 29.9927V30.0179C14.2194 30.0936 14.1678 30.1439 14.1163 30.2195C14.013 30.3455 13.9355 30.4716 13.8322 30.6228C13.8064 30.6479 13.7806 30.6983 13.7548 30.7488C13.7548 30.774 13.7291 30.7992 13.7291 30.7992C13.5227 31.2276 13.6775 31.7064 14.0645 31.8828C14.1677 31.9332 14.2709 31.9585 14.3742 31.9585C14.6839 31.9585 14.9936 31.7568 15.1484 31.4796C15.1484 31.4544 15.1742 31.4292 15.1742 31.4292C15.2 31.3788 15.2258 31.3285 15.2516 31.3032C15.3291 31.1268 15.3548 31.0007 15.4064 30.8495L15.4839 30.6228C15.6645 30.1188 15.7936 29.7155 16.0258 29.3627C16.1289 29.2115 16.2581 29.1863 16.3612 29.1358C16.387 29.1358 16.387 29.1358 16.4128 29.1106L16.5936 28.783C17.7291 29.2115 18.9678 29.4382 20.2064 29.4382C20.9548 29.4382 21.7291 29.3627 22.4517 29.1863C22.9065 29.087 23.3546 28.9607 23.7936 28.8082L23.9483 29.0854C23.9742 29.0854 23.9742 29.0854 24 29.1106C24.1291 29.1358 24.2322 29.1863 24.3355 29.3375C24.5419 29.6903 24.6967 30.1188 24.8773 30.5976V30.6228L24.9548 30.8495C25.0064 31.0007 25.0322 31.1519 25.1095 31.3032C25.1355 31.3535 25.1613 31.3788 25.187 31.4292C25.187 31.4544 25.213 31.4796 25.213 31.4796C25.3677 31.782 25.6773 31.9585 25.987 31.9585C26.0903 31.9585 26.1936 31.9332 26.2967 31.8828C26.4773 31.7821 26.6322 31.6308 26.6839 31.4292C26.7355 31.2276 26.7355 31.0007 26.6323 30.7992C26.6323 30.774 26.6064 30.774 26.6064 30.7488C26.5806 30.6985 26.5548 30.6481 26.5291 30.6228C26.4516 30.4716 26.3484 30.3455 26.2452 30.2195C26.1936 30.1439 26.142 30.0936 26.0905 30.0181V29.9927C25.8064 29.5643 25.5483 29.1863 25.4194 28.8082C25.3678 28.6318 25.4194 28.5311 25.4452 28.4051C25.4452 28.3799 25.4709 28.3799 25.4709 28.3547L25.3419 28.0523C26.7097 27.271 27.8709 26.162 28.7484 24.8012C29.213 24.0955 29.5742 23.3143 29.8322 22.533L30.1419 22.5834C30.1678 22.5834 30.1678 22.5582 30.1934 22.5582C30.2967 22.5078 30.3742 22.4323 30.5291 22.4323H30.5806C30.9936 22.4827 31.4322 22.6337 31.9227 22.8103H31.9484C32.0258 22.8354 32.1031 22.8858 32.1806 22.911C32.3355 22.9867 32.4645 23.037 32.6452 23.0875C32.6967 23.0875 32.7483 23.1127 32.8 23.1127C32.8258 23.1127 32.8516 23.1127 32.8773 23.1379C32.9548 23.1631 33.0064 23.1631 33.0839 23.1631C33.4709 23.1631 33.8064 22.9111 33.9097 22.5835C33.9097 22.2811 33.6258 21.8778 33.1612 21.7519V21.7518ZM21.2128 20.5169L20.0773 21.0462L18.9419 20.5169L18.6581 19.3325L19.4322 18.3748H20.6967L21.4709 19.3325L21.213 20.5169H21.2128ZM27.9484 17.896C28.1486 18.7294 28.2096 19.5888 28.1291 20.4412L24.1806 19.3325C23.8194 19.2318 23.613 18.8788 23.6903 18.5261C23.7161 18.4252 23.7678 18.3243 23.8452 18.2488L26.9678 15.5018C27.4064 16.2075 27.7419 17.0141 27.9484 17.896ZM25.7291 13.9898L22.3484 16.3335C22.0645 16.5099 21.6773 16.4594 21.4452 16.1823C21.3678 16.1066 21.342 16.0058 21.3161 15.9051L21.0839 11.7971C22.8414 11.9947 24.4787 12.7676 25.7291 13.9898ZM18.2452 11.923C18.5291 11.8726 18.787 11.8223 19.0709 11.7719L18.8388 15.804C18.813 16.1568 18.5291 16.4593 18.1419 16.4593C18.0388 16.4593 17.9097 16.4341 17.8322 16.3837L14.4 13.9898C15.4581 12.9565 16.7742 12.2506 18.2452 11.923ZM13.1613 15.5016L16.2322 18.173C16.5161 18.3999 16.5419 18.8282 16.3097 19.1054C16.2322 19.2061 16.1291 19.2818 16 19.3072L12 20.4412C11.8452 18.7275 12.2322 16.9886 13.1613 15.5016ZM12.4644 22.3313L16.5678 21.6508C16.9033 21.6256 17.213 21.8525 17.2903 22.1801C17.3161 22.3311 17.3161 22.4573 17.2645 22.5834L15.6903 26.2879C14.2452 25.3806 13.0838 23.9945 12.4644 22.3313ZM21.8839 27.3464C21.2903 27.4724 20.6967 27.548 20.0773 27.548C19.1742 27.548 18.2967 27.3969 17.4711 27.1448L19.5097 23.541C19.7161 23.3141 20.0516 23.2134 20.3355 23.3646C20.456 23.4367 20.5611 23.5308 20.6452 23.6417L22.6322 27.1448C22.4 27.2204 22.1419 27.2709 21.8837 27.3464H21.8839ZM26.9161 23.8434C26.2709 24.8514 25.4192 25.6579 24.4388 26.2879L22.813 22.4824C22.7355 22.1801 22.8645 21.8525 23.1742 21.7011C23.2773 21.6508 23.4064 21.6256 23.5355 21.6256L27.6645 22.3061C27.5097 22.8605 27.2516 23.3646 26.9161 23.8434Z" fill="white"/>
</g>
<defs>
<clipPath id="clip0_229_107">
<rect width="40" height="38" fill="white"/>
</clipPath>
</defs>
</svg>
