<svg width="30" height="30" viewBox="0 0 30 30" fill="none" xmlns="http://www.w3.org/2000/svg">
<g clip-path="url(#clip0_225_45)">
<path d="M14.8716 0.00848389C7.27478 0.00848389 7.74912 3.31613 7.74912 3.31613L7.75755 6.74295H15.007V7.77178H4.87817C4.87817 7.77178 0.0169907 7.21825 0.0169907 14.9141C0.0169907 22.6102 4.25995 22.3373 4.25995 22.3373H6.79213V18.766C6.79213 18.766 6.65562 14.506 10.9674 14.506H18.1575C18.1575 14.506 22.1972 14.5715 22.1972 10.5861V3.99648C22.1972 3.99648 22.8107 0.00848389 14.8716 0.00848389ZM10.8742 2.31295C11.0455 2.3128 11.2152 2.34656 11.3735 2.41231C11.5318 2.47806 11.6756 2.57451 11.7967 2.69613C11.9179 2.81775 12.0139 2.96216 12.0794 3.12109C12.1449 3.28003 12.1785 3.45037 12.1784 3.62237C12.1785 3.79436 12.1449 3.9647 12.0794 4.12364C12.0139 4.28257 11.9179 4.42698 11.7967 4.54861C11.6756 4.67023 11.5318 4.76667 11.3735 4.83242C11.2152 4.89817 11.0455 4.93193 10.8742 4.93178C10.7029 4.93193 10.5332 4.89817 10.3749 4.83242C10.2166 4.76667 10.0728 4.67023 9.95168 4.54861C9.83054 4.42698 9.73448 4.28257 9.669 4.12364C9.60351 3.9647 9.56988 3.79436 9.57004 3.62237C9.56988 3.45037 9.60351 3.28003 9.669 3.12109C9.73448 2.96216 9.83054 2.81775 9.95168 2.69613C10.0728 2.57451 10.2166 2.47806 10.3749 2.41231C10.5332 2.34656 10.7029 2.3128 10.8742 2.31295Z" fill="url(#paint0_linear_225_45)"/>
<path d="M15.0873 29.8972C22.6841 29.8972 22.2097 26.5895 22.2097 26.5895L22.2013 23.1628H14.9517V22.134H25.0806C25.0806 22.134 29.9417 22.6875 29.9417 14.9914C29.9417 7.29539 25.6988 7.56834 25.6988 7.56834H23.1666V11.1395C23.1666 11.1395 23.3031 15.3995 18.9914 15.3995H11.8012C11.8012 15.3995 7.76154 15.334 7.76154 19.3195V25.9093C7.76154 25.9093 7.14812 29.8972 15.0872 29.8972H15.0873ZM19.0846 27.5929C18.9133 27.5931 18.7437 27.5593 18.5854 27.4936C18.4271 27.4278 18.2832 27.3314 18.1621 27.2098C18.041 27.0881 17.9449 26.9437 17.8794 26.7848C17.8139 26.6259 17.7803 26.4555 17.7805 26.2835C17.7803 26.1115 17.8139 25.9412 17.8794 25.7822C17.9449 25.6233 18.0409 25.4788 18.1621 25.3572C18.2832 25.2356 18.427 25.1391 18.5854 25.0734C18.7437 25.0076 18.9133 24.9738 19.0846 24.974C19.256 24.9738 19.4256 25.0076 19.5839 25.0733C19.7422 25.1391 19.886 25.2355 20.0072 25.3572C20.1283 25.4788 20.2244 25.6232 20.2899 25.7821C20.3553 25.9411 20.389 26.1114 20.3888 26.2834C20.389 26.4554 20.3553 26.6257 20.2899 26.7847C20.2244 26.9436 20.1283 27.088 20.0072 27.2096C19.886 27.3313 19.7422 27.4277 19.5839 27.4934C19.4256 27.5592 19.256 27.5931 19.0846 27.5929Z" fill="url(#paint1_linear_225_45)"/>
</g>
<defs>
<linearGradient id="paint0_linear_225_45" x1="287.593" y1="268.84" x2="1776.46" y2="1736.95" gradientUnits="userSpaceOnUse">
<stop stop-color="#387EB8"/>
<stop offset="1" stop-color="#366994"/>
</linearGradient>
<linearGradient id="paint1_linear_225_45" x1="432.224" y1="467.097" x2="2030.8" y2="1972.23" gradientUnits="userSpaceOnUse">
<stop stop-color="#FFE052"/>
<stop offset="1" stop-color="#FFC331"/>
</linearGradient>
<clipPath id="clip0_225_45">
<rect width="30" height="30" fill="white"/>
</clipPath>
</defs>
</svg>
