<svg fill="none" viewBox="0 0 44 44" xmlns="http://www.w3.org/2000/svg"><path d="M15.989 20.258a6.013 6.013 0 0 1 1.552-2.736 5.88 5.88 0 0 1 4.172-1.727c1.63 0 3.104.66 4.172 1.727a6.011 6.011 0 0 1 1.552 2.736h4.346a5.746 5.746 0 0 1 .66-1.592l-7.703-7.703a5.954 5.954 0 0 1-3.027.835 5.88 5.88 0 0 1-4.172-1.727 5.88 5.88 0 0 1-1.727-4.172c0-1.63.66-3.105 1.727-4.172A5.88 5.88 0 0 1 21.713 0c1.63 0 3.104.66 4.172 1.727a5.88 5.88 0 0 1 1.727 4.172 5.9 5.9 0 0 1-.835 3.027l7.703 7.703a5.954 5.954 0 0 1 3.028-.834c1.63 0 3.104.66 4.171 1.727a5.88 5.88 0 0 1 1.727 4.171 5.88 5.88 0 0 1-1.727 4.172 5.88 5.88 0 0 1-4.172 1.727 5.9 5.9 0 0 1-3.026-.834l-7.704 7.723c.524.892.835 1.92.835 3.026a5.88 5.88 0 0 1-1.727 4.172 5.88 5.88 0 0 1-4.172 1.727 5.88 5.88 0 0 1-4.172-1.727 5.88 5.88 0 0 1-1.727-4.172c0-1.63.66-3.104 1.727-4.171a5.88 5.88 0 0 1 4.172-1.727 5.9 5.9 0 0 1 3.027.834l7.703-7.703a5.746 5.746 0 0 1-.66-1.591h-4.346a6.011 6.011 0 0 1-1.552 2.736 5.88 5.88 0 0 1-4.172 1.727 5.88 5.88 0 0 1-4.172-1.727 6.013 6.013 0 0 1-1.552-2.736h-4.347a6.013 6.013 0 0 1-1.552 2.736 5.88 5.88 0 0 1-4.172 1.727 5.88 5.88 0 0 1-4.172-1.727A5.817 5.817 0 0 1 0 21.713c0-1.63.66-3.105 1.727-4.172a5.88 5.88 0 0 1 4.172-1.727c1.63 0 3.104.66 4.172 1.727a6.014 6.014 0 0 1 1.552 2.736h4.366v-.02Zm3.59 19.384c.543.543 1.3.892 2.134.892.834 0 1.59-.33 2.134-.892.543-.543.893-1.3.893-2.135 0-.834-.33-1.59-.893-2.134a3.022 3.022 0 0 0-2.134-.892c-.835 0-1.591.33-2.135.892a3.022 3.022 0 0 0-.892 2.135c0 .834.33 1.59.892 2.134Zm20.063-15.795c.543-.543.892-1.3.892-2.134 0-.835-.33-1.591-.892-2.135a3.022 3.022 0 0 0-2.135-.892c-.834 0-1.59.33-2.134.892a3.022 3.022 0 0 0-.892 2.135c0 .834.33 1.59.892 2.134.543.543 1.3.893 2.135.893a3.106 3.106 0 0 0 2.134-.893ZM23.847 3.764a3.022 3.022 0 0 0-2.134-.892c-.835 0-1.591.33-2.135.892a3.022 3.022 0 0 0-.892 2.135c0 .834.33 1.59.892 2.134.544.543 1.3.893 2.135.893.834 0 1.59-.33 2.134-.893.543-.543.893-1.3.893-2.134a3.106 3.106 0 0 0-.893-2.135ZM3.764 19.578a3.022 3.022 0 0 0-.892 2.135c0 .834.33 1.59.892 2.134.544.543 1.3.893 2.135.893.834 0 1.59-.33 2.134-.893.543-.563.893-1.3.893-2.134 0-.835-.33-1.591-.893-2.135-.563-.543-1.3-.892-2.134-.892-.835 0-1.591.33-2.135.892Zm15.814 0a3.022 3.022 0 0 0-.892 2.135c0 .834.33 1.59.892 2.134.544.543 1.3.893 2.135.893.834 0 1.59-.33 2.134-.893.543-.543.893-1.3.893-2.134 0-.835-.33-1.591-.893-2.135a3.022 3.022 0 0 0-2.134-.892c-.835 0-1.591.33-2.135.892Z" fill="#028CF0"></path></svg>
