<svg width="38" height="42" viewBox="0 0 38 42" fill="none" xmlns="http://www.w3.org/2000/svg">
<path d="M38 21.0037C38 18.562 34.8475 16.248 30.0143 14.813C31.1296 10.0346 30.6339 6.23301 28.4497 5.01589C27.9462 4.73039 27.3575 4.59516 26.7146 4.59516V6.27058C27.0709 6.27058 27.3575 6.3382 27.5976 6.46592C28.651 7.05194 29.108 9.28332 28.7517 12.1533C28.6665 12.8596 28.5271 13.6033 28.3567 14.3622C26.8386 14.0015 25.181 13.7236 23.4382 13.5432C22.3926 12.1533 21.3082 10.8911 20.2161 9.7867C22.7411 7.51024 25.1113 6.26306 26.7224 6.26306V4.58765C24.5923 4.58765 21.8039 6.06021 18.9845 8.61466C16.1651 6.07524 13.3767 4.6177 11.2466 4.6177V6.29312C12.85 6.29312 15.2279 7.53278 17.753 9.79422C16.6686 10.8986 15.5842 12.1533 14.554 13.5432C12.8035 13.7236 11.1459 14.0015 9.6278 14.3697C9.44965 13.6184 9.31798 12.8896 9.22503 12.1909C8.86099 9.32089 9.31023 7.0895 10.3559 6.49597C10.5883 6.36073 10.8903 6.30063 11.2466 6.30063V4.62521C10.596 4.62521 10.0073 4.76045 9.49613 5.04594C7.31961 6.26306 6.83163 10.0572 7.95475 14.8205C3.13697 16.263 0 18.5695 0 21.0037C0 23.4455 3.15247 25.7595 7.98573 27.1945C6.87036 31.9728 7.36608 35.7745 9.55035 36.9916C10.0538 37.2771 10.6425 37.4123 11.2931 37.4123C13.4232 37.4123 16.2116 35.9398 19.031 33.3853C21.8504 35.9247 24.6388 37.3823 26.7689 37.3823C27.4195 37.3823 28.0082 37.247 28.5194 36.9615C30.6959 35.7444 31.1839 31.9503 30.0607 27.187C34.863 25.752 38 23.438 38 21.0037ZM27.9152 15.9925C27.6286 16.9617 27.2723 17.9609 26.8695 18.9602C26.552 18.3591 26.2189 17.7581 25.8549 17.157C25.4986 16.556 25.119 15.97 24.7395 15.399C25.8394 15.5568 26.9005 15.7521 27.9152 15.9925ZM24.3677 23.9939C23.7636 25.0082 23.1439 25.9699 22.501 26.8639C21.3469 26.9616 20.1773 27.0142 19 27.0142C17.8304 27.0142 16.6608 26.9616 15.5145 26.8715C14.8716 25.9774 14.2442 25.0232 13.64 24.0165C13.0514 23.0323 12.5169 22.033 12.0289 21.0263C12.5092 20.0195 13.0514 19.0128 13.6323 18.0286C14.2364 17.0143 14.8561 16.0526 15.499 15.1586C16.6531 15.0609 17.8227 15.0083 19 15.0083C20.1696 15.0083 21.3392 15.0609 22.4855 15.151C23.1284 16.0451 23.7558 16.9993 24.36 18.006C24.9486 18.9902 25.4831 19.9895 25.9711 20.9962C25.4831 22.003 24.9486 23.0097 24.3677 23.9939ZM26.8695 23.0172C27.2878 24.024 27.6441 25.0308 27.9384 26.0075C26.9238 26.2479 25.8549 26.4507 24.7472 26.6085C25.1268 26.03 25.5063 25.4365 25.8626 24.8279C26.2189 24.2269 26.552 23.6183 26.8695 23.0172ZM19.0155 31.0337C18.2952 30.3125 17.5748 29.5086 16.8622 28.6295C17.5593 28.6596 18.2719 28.6821 18.9923 28.6821C19.7203 28.6821 20.4407 28.6671 21.1455 28.6295C20.4484 29.5086 19.7281 30.3125 19.0155 31.0337ZM13.2528 26.6085C12.1529 26.4507 11.0917 26.2554 10.077 26.015C10.3636 25.0458 10.7199 24.0465 11.1227 23.0473C11.4403 23.6483 11.7733 24.2494 12.1374 24.8504C12.5014 25.4515 12.8732 26.0375 13.2528 26.6085ZM18.9768 10.9738C19.6971 11.695 20.4174 12.4989 21.13 13.378C20.4329 13.3479 19.7203 13.3254 19 13.3254C18.2719 13.3254 17.5516 13.3404 16.8467 13.378C17.5438 12.4989 18.2642 11.695 18.9768 10.9738ZM13.245 15.399C12.8655 15.9775 12.4859 16.571 12.1296 17.1796C11.7733 17.7806 11.4403 18.3817 11.1227 18.9827C10.7044 17.976 10.3481 16.9692 10.0538 15.9925C11.0685 15.7596 12.1374 15.5568 13.245 15.399ZM6.23522 24.8054C3.49327 23.6709 1.71953 22.1833 1.71953 21.0037C1.71953 19.8242 3.49327 18.3291 6.23522 17.2021C6.90135 16.9241 7.62943 16.6762 8.38076 16.4433C8.82226 17.9159 9.40318 19.4485 10.1235 21.0188C9.41092 22.5815 8.83775 24.1066 8.404 25.5717C7.63718 25.3388 6.90909 25.0833 6.23522 24.8054ZM10.4024 35.5416C9.34896 34.9555 8.89197 32.7242 9.24827 29.8542C9.33347 29.1479 9.47289 28.4041 9.6433 27.6453C11.1614 28.0059 12.819 28.2839 14.5618 28.4642C15.6074 29.8542 16.6918 31.1164 17.7839 32.2208C15.2589 34.4972 12.8887 35.7444 11.2776 35.7444C10.9291 35.7369 10.6347 35.6693 10.4024 35.5416ZM28.775 29.8166C29.139 32.6866 28.6898 34.918 27.6441 35.5115C27.4117 35.6467 27.1097 35.7068 26.7534 35.7068C25.15 35.7068 22.7721 34.4672 20.247 32.2057C21.3314 31.1013 22.4158 29.8466 23.446 28.4567C25.1965 28.2764 26.8541 27.9984 28.3722 27.6303C28.5503 28.3891 28.6898 29.1179 28.775 29.8166ZM31.757 24.8054C31.0909 25.0833 30.3628 25.3313 29.6115 25.5642C29.17 24.0916 28.5891 22.5589 27.8687 20.9887C28.5813 19.426 29.1545 17.9008 29.5883 16.4358C30.3551 16.6687 31.0832 16.9241 31.7648 17.2021C34.5067 18.3366 36.2805 19.8242 36.2805 21.0037C36.2727 22.1833 34.499 23.6784 31.757 24.8054Z" fill="#61DAFB"/>
<path d="M18.9923 24.4372C20.9472 24.4372 22.532 22.9 22.532 21.0037C22.532 19.1075 20.9472 17.5703 18.9923 17.5703C17.0373 17.5703 15.4525 19.1075 15.4525 21.0037C15.4525 22.9 17.0373 24.4372 18.9923 24.4372Z" fill="#61DAFB"/>
</svg>
