<svg width="23" height="28" viewBox="0 0 23 28" fill="none" xmlns="http://www.w3.org/2000/svg">
<path d="M20.6621 4.59612C18.315 1.1971 13.679 0.1896 10.3275 2.3506L4.44163 6.14707C4.04567 6.39894 3.67627 6.6918 3.34019 7.02094C3.00369 7.35009 2.70218 7.71381 2.44032 8.10614C2.17845 8.49846 1.95749 8.91726 1.7808 9.35569C1.60455 9.79432 1.47369 10.2503 1.39032 10.7162C1.32074 11.1069 1.28279 11.503 1.27773 11.9C1.27225 12.2975 1.29966 12.6945 1.35912 13.0868C1.41858 13.4796 1.51008 13.8668 1.63237 14.2442C1.75466 14.6216 1.90773 14.9879 2.0899 15.3396C1.96458 15.5324 1.84889 15.7315 1.74327 15.936C1.63743 16.1405 1.54213 16.3505 1.45737 16.5648C1.37261 16.7792 1.29882 16.9977 1.23599 17.2197C1.17316 17.4417 1.12171 17.6667 1.08123 17.8938C0.913019 18.8489 0.935242 19.8283 1.14659 20.7746C1.25201 21.2463 1.40339 21.7065 1.59906 22.1479C1.79472 22.5893 2.03297 23.0103 2.31128 23.4039C4.65837 26.8029 9.29395 27.8104 12.6455 25.6494L18.5314 21.8687C18.9273 21.6164 19.2959 21.3231 19.632 20.9936C19.968 20.6642 20.2694 20.3006 20.5314 19.9084C20.7933 19.5165 21.0142 19.0977 21.1909 18.6592C21.3676 18.2212 21.4988 17.7653 21.5827 17.2995C21.6522 16.9089 21.6898 16.5132 21.6948 16.1162C21.6999 15.7191 21.6725 15.3221 21.6126 14.9298C21.5531 14.5375 21.4616 14.1507 21.3389 13.7733C21.2162 13.3964 21.0632 13.0301 20.881 12.6783C21.0062 12.4858 21.1222 12.2864 21.228 12.0819C21.3335 11.8774 21.4292 11.6674 21.5139 11.4531C21.5987 11.2388 21.6729 11.0202 21.7362 10.7982C21.799 10.5766 21.8513 10.3517 21.8922 10.1245C21.9757 9.64812 22.0119 9.16444 22.001 8.68075C21.99 8.19707 21.9314 7.71595 21.826 7.24379C21.7206 6.77206 21.5692 6.31185 21.3735 5.87043C21.1781 5.42894 20.9398 5.00822 20.6621 4.61448" fill="#FF3E00"/>
<path d="M9.75232 23.7326C9.29167 23.8537 8.81544 23.903 8.3401 23.8786C7.86487 23.8538 7.39595 23.7565 6.94981 23.5887C6.50366 23.4212 6.08532 23.1858 5.70922 22.8907C5.33343 22.5954 5.00425 22.2439 4.73302 21.8482C4.56561 21.6113 4.42224 21.3586 4.30501 21.093C4.18744 20.8277 4.09633 20.5511 4.03302 20.2674C3.97019 19.9835 3.93477 19.6941 3.92845 19.4033C3.92212 19.1126 3.94447 18.8219 3.99507 18.5354C4.00308 18.4889 4.01236 18.4424 4.02248 18.3963C4.03218 18.3497 4.04314 18.3036 4.05495 18.2579C4.06634 18.2118 4.07899 18.1662 4.09248 18.1205C4.10555 18.0752 4.11989 18.03 4.13465 17.9851L4.24555 17.6423L4.5479 17.8707C4.72121 17.9988 4.90001 18.1196 5.08344 18.2323C5.26687 18.3455 5.45494 18.4505 5.64723 18.547C5.8391 18.6439 6.0356 18.7327 6.23506 18.8125C6.43451 18.8928 6.63734 18.964 6.84313 19.0268L7.06873 19.093L7.04849 19.3214C7.03761 19.4768 7.05359 19.633 7.09571 19.7829C7.11638 19.858 7.14379 19.9306 7.1771 20.0006C7.21041 20.0706 7.24963 20.1376 7.29433 20.2008C7.37623 20.32 7.47563 20.4258 7.58908 20.5146C7.7021 20.6034 7.82818 20.6742 7.9627 20.7246C8.09721 20.775 8.23806 20.804 8.38143 20.8113C8.52438 20.819 8.66775 20.804 8.80649 20.7673C8.83853 20.7588 8.86974 20.7489 8.90094 20.7378C8.93215 20.7267 8.96293 20.7148 8.99287 20.7011C9.02323 20.6879 9.05275 20.6734 9.08227 20.6576C9.11136 20.6422 9.13962 20.6256 9.16745 20.6076L15.0445 16.8107C15.1165 16.765 15.1836 16.7118 15.2448 16.6519C15.3059 16.5917 15.3603 16.5256 15.408 16.4543C15.4556 16.383 15.4952 16.3066 15.5273 16.2267C15.5589 16.1469 15.5825 16.0641 15.5977 15.9795C15.6125 15.8929 15.6188 15.8054 15.6167 15.7174C15.6146 15.6299 15.6036 15.5428 15.5842 15.457C15.5652 15.3716 15.5374 15.2884 15.5016 15.2081C15.4661 15.1283 15.4223 15.0523 15.3717 14.981C15.2899 14.8619 15.1908 14.7565 15.0773 14.6677C14.9639 14.5789 14.8378 14.508 14.7037 14.4576C14.5693 14.4072 14.4281 14.3779 14.285 14.3705C14.1416 14.3633 13.9983 14.3782 13.8595 14.4145C13.8279 14.423 13.7963 14.4329 13.7651 14.444C13.7339 14.4551 13.7035 14.467 13.6731 14.4803C13.6428 14.4939 13.6133 14.5084 13.5842 14.5242C13.5551 14.5396 13.5264 14.5567 13.4986 14.5746L11.2417 16.0252C11.1498 16.0841 11.0553 16.1396 10.9592 16.1917C10.8626 16.2434 10.7648 16.2916 10.6648 16.336C10.5649 16.3804 10.4633 16.421 10.3604 16.4573C10.2575 16.494 10.1533 16.5264 10.0479 16.555C9.58787 16.6754 9.11263 16.7241 8.63823 16.6993C8.16384 16.6746 7.69619 16.5768 7.25089 16.4099C6.8056 16.2425 6.38813 16.0073 6.01283 15.7127C5.63753 15.4182 5.30862 15.0677 5.03747 14.6728C4.87091 14.4359 4.72796 14.1827 4.61115 13.9172C4.49392 13.6516 4.40326 13.375 4.34043 13.0915C4.2776 12.8076 4.24302 12.5182 4.23712 12.2275C4.23079 11.9372 4.25314 11.6465 4.30417 11.3604C4.40386 10.7973 4.61842 10.2614 4.93416 9.78685C5.25012 9.31236 5.66046 8.90988 6.13891 8.60518L12.0341 4.80871C12.1256 4.74979 12.2192 4.6943 12.3149 4.64221C12.4106 4.59056 12.5085 4.54232 12.6075 4.49792C12.7069 4.4535 12.8079 4.41306 12.9103 4.37668C13.0124 4.33997 13.1161 4.30709 13.2211 4.27849C13.6816 4.15768 14.1577 4.10816 14.6325 4.13249C15.1077 4.15725 15.5762 4.25458 16.0223 4.42236C16.4685 4.58971 16.8864 4.82536 17.2625 5.12035C17.6382 5.41583 17.9672 5.7675 18.2383 6.16328C18.4053 6.39979 18.5491 6.65251 18.6667 6.91805C18.7844 7.18358 18.8755 7.45979 18.9391 7.74368C19.0024 8.02758 19.0378 8.31702 19.0441 8.60774C19.0509 8.89846 19.029 9.18919 18.9783 9.47564C18.9695 9.5226 18.9602 9.56956 18.9497 9.61609C18.9396 9.66263 18.9286 9.70916 18.9168 9.75526C18.9054 9.8018 18.8927 9.8479 18.8797 9.89358C18.8666 9.93969 18.8531 9.98537 18.8384 10.0306L18.7258 10.3734L18.4255 10.145C18.2518 10.0157 18.0726 9.89444 17.8887 9.78045C17.7049 9.66689 17.5159 9.56102 17.3232 9.46326C16.9374 9.26842 16.5361 9.10676 16.1235 8.98L15.8975 8.91383L15.9182 8.68544C15.9245 8.60731 15.9241 8.52876 15.9169 8.45107C15.9102 8.37337 15.8963 8.2961 15.876 8.22054C15.8554 8.1454 15.8288 8.07155 15.7955 8.00111C15.7626 7.93024 15.7234 7.86279 15.6787 7.79875C15.5964 7.68175 15.497 7.57811 15.3839 7.49138C15.271 7.40427 15.1456 7.33516 15.012 7.28647C14.7436 7.18789 14.4518 7.17463 14.1758 7.24847C14.1437 7.25701 14.1121 7.26683 14.0813 7.2775C14.0501 7.2886 14.0193 7.30098 13.989 7.31422C13.959 7.32745 13.9291 7.34239 13.9 7.35776C13.8709 7.37356 13.8422 7.39021 13.8144 7.40814L7.92643 11.1982C7.85475 11.2439 7.7877 11.2972 7.72698 11.357C7.66625 11.4168 7.61143 11.483 7.56378 11.5538C7.51653 11.6251 7.47655 11.701 7.44445 11.7805C7.4124 11.8603 7.38879 11.9427 7.3736 12.0273C7.35885 12.1139 7.35252 12.2019 7.35463 12.2898C7.35969 12.4658 7.3988 12.6392 7.46975 12.8C7.50552 12.88 7.54888 12.9563 7.59921 13.0279C7.68059 13.1457 7.77926 13.2508 7.89185 13.3387C8.00421 13.4271 8.1292 13.4976 8.26251 13.5479C8.5306 13.6488 8.8226 13.665 9.09998 13.5944C9.1316 13.5855 9.16323 13.5756 9.19444 13.5645C9.22522 13.5534 9.256 13.5411 9.28636 13.5278C9.31658 13.5145 9.34627 13.5 9.37534 13.4843C9.40443 13.4689 9.43311 13.4523 9.46094 13.4343L11.7178 11.9863C11.8101 11.9265 11.9042 11.8702 12.0007 11.8181C12.0969 11.7656 12.1951 11.7173 12.2955 11.6725C12.3955 11.6281 12.4972 11.5876 12.6004 11.5513C12.7037 11.5145 12.8083 11.4821 12.9141 11.4539C13.3746 11.3327 13.8502 11.2832 14.3255 11.3071C14.8007 11.3314 15.2692 11.4287 15.7154 11.5961C16.1611 11.7634 16.5794 11.9987 16.9551 12.2941C17.3313 12.5891 17.6602 12.9404 17.9313 13.3361C18.0983 13.5731 18.2417 13.8258 18.3593 14.0913C18.477 14.3567 18.5682 14.6333 18.6317 14.917C18.695 15.2004 18.7304 15.4899 18.7371 15.7806C18.7439 16.0718 18.7215 16.3625 18.6714 16.6485C18.6216 16.9293 18.5432 17.2042 18.4373 17.4686C18.3315 17.7331 18.1987 17.9856 18.0409 18.2221C17.8837 18.4586 17.7023 18.678 17.4999 18.8765C17.2975 19.075 17.0753 19.2518 16.8366 19.4038L10.9482 23.2002C10.8559 23.2596 10.7614 23.3155 10.6653 23.3676C10.5687 23.4197 10.4705 23.4679 10.3701 23.5123C10.2702 23.5571 10.1685 23.5977 10.0652 23.6344C9.96232 23.6711 9.85775 23.704 9.75232 23.7326Z" fill="white"/>
</svg>
