<svg xmlns="http://www.w3.org/2000/svg" viewBox="0 0 219.69 138.464">
  <defs>
    <style>
      .cls-1 {
        fill: #cc3734;
      }

      .cls-2 {
        fill: #707070;
        stroke: #313131;
      }

      .cls-2, .cls-5 {
        stroke-width: 7px;
      }

      .cls-3 {
        fill: #cbcaca;
      }

      .cls-4 {
        fill: #f1f1f1;
      }

      .cls-5, .cls-8 {
        fill: none;
      }

      .cls-5 {
        stroke: #f1f1f1;
      }

      .cls-6, .cls-7 {
        stroke: none;
      }

      .cls-7 {
        fill: #313131;
      }
    </style>
  </defs>
  <g id="Group_26" data-name="Group 26" transform="translate(8 7)">
    <g id="Group_24" data-name="Group 24" transform="translate(0)">
      <g id="Path_37" data-name="Path 37" class="cls-1" transform="translate(0 14.591)">
        <path class="cls-6" d="M 196.1244049072266 111.479118347168 L 7.5656418800354 111.479118347168 C 4.455288887023926 111.479118347168 1.537024140357971 110.2398223876953 -0.6515347361564636 107.9895629882813 C -2.810828924179077 105.7693862915039 -4.00000524520874 102.8254699707031 -4.00000524520874 99.70014953613281 L -4.00000524520874 6.187620162963867 L -4.00000524520874 3.36050271987915 C -4.00000524520874 0.2351790815591812 -2.810828924179077 -2.708732604980469 -0.6515347361564636 -4.928909301757813 C 1.537024140357971 -7.179173946380615 4.455288887023926 -8.41846752166748 7.5656418800354 -8.41846752166748 L 20.30088043212891 -8.41846752166748 L 21.32208251953125 -12.07708549499512 L 22.13840675354004 -15.0017032623291 L 25.17481803894043 -15.0017032623291 L 51.74617004394531 -15.0017032623291 L 54.63693618774414 -15.0017032623291 L 55.54411315917969 -12.25696754455566 L 56.81278991699219 -8.41846752166748 L 196.1244049072266 -8.41846752166748 C 199.2347564697266 -8.41846752166748 202.1530303955078 -7.179173946380615 204.3415832519531 -4.928909301757813 C 206.5008697509766 -2.708732604980469 207.6900482177734 0.2351790815591812 207.6900482177734 3.36050271987915 L 207.6900482177734 99.70014953613281 C 207.6900482177734 102.8254699707031 206.5008697509766 105.7693862915039 204.3415832519531 107.9895629882813 C 202.1530303955078 110.2398223876953 199.2347564697266 111.479118347168 196.1244049072266 111.479118347168 Z"/>
        <path class="cls-7" d="M 196.1244201660156 107.4791412353516 C 200.3027954101563 107.4791412353516 203.6900634765625 103.9963760375977 203.6900634765625 99.70014190673828 L 203.6900634765625 3.360508441925049 C 203.6900634765625 -0.9356914758682251 200.3027954101563 -4.418457984924316 196.1244201660156 -4.418457984924316 L 53.92202377319336 -4.418457984924316 L 51.74615859985352 -11.0016918182373 L 25.17482376098633 -11.0016918182373 L 23.3372917175293 -4.418457984924316 L 7.565624237060547 -4.418457984924316 C 3.38725733757019 -4.418457984924316 -9.224446330335923e-06 -0.9356914758682251 -9.224446330335923e-06 3.360508441925049 L -9.224446330335923e-06 6.187641620635986 L -9.224446330335923e-06 99.70014190673828 C -9.224446330335923e-06 103.9963760375977 3.38725733757019 107.4791412353516 7.565624237060547 107.4791412353516 L 196.1244201660156 107.4791412353516 M 196.1244201660156 115.4791412353516 L 7.565624237060547 115.4791412353516 C -1.017309188842773 115.4791412353516 -8.000009536743164 108.4007110595703 -8.000009536743164 99.70014190673828 L -8.000009536743164 6.187641620635986 L -8.000009536743164 3.360508441925049 C -8.000009536743164 -5.340058326721191 -1.017309188842773 -12.41845798492432 7.565624237060547 -12.41845798492432 L 17.26448059082031 -12.41845798492432 L 17.46935653686523 -13.15245819091797 L 19.10202407836914 -19.0016918182373 L 25.17482376098633 -19.0016918182373 L 51.74615859985352 -19.0016918182373 L 57.52765655517578 -19.0016918182373 L 59.34202575683594 -13.51225852966309 L 59.70354461669922 -12.41845798492432 L 196.1244201660156 -12.41845798492432 C 204.7073516845703 -12.41845798492432 211.6900634765625 -5.340058326721191 211.6900634765625 3.360508441925049 L 211.6900634765625 99.70014190673828 C 211.6900634765625 108.4007110595703 204.7073516845703 115.4791412353516 196.1244201660156 115.4791412353516 Z"/>
      </g>
      <g id="Ellipse_7" data-name="Ellipse 7" class="cls-2" transform="translate(75.656)">
        <ellipse class="cls-6" cx="60.525" cy="62.232" rx="60.525" ry="62.232"/>
        <ellipse class="cls-8" cx="60.525" cy="62.232" rx="64.025" ry="65.732"/>
      </g>
      <ellipse id="Ellipse_6" data-name="Ellipse 6" class="cls-3" cx="38.992" cy="40.092" rx="38.992" ry="40.092" transform="translate(97.189 22.14)"/>
      <rect id="Rectangle_10" data-name="Rectangle 10" class="cls-4" width="29.681" height="11.369" rx="5" transform="translate(25.025 23.935)"/>
    </g>
    <path id="Path_38" data-name="Path 38" class="cls-5" d="M2451.115,2087.054s11.631-1.018,18.189,10.942" transform="translate(-2310.729 -2055.172)"/>
  </g>
</svg>
