<svg xmlns="http://www.w3.org/2000/svg" viewBox="0 0 112.853 108.164">
  <defs>
    <style>
      .cls-1 {
        fill: #707070;
      }

      .cls-2 {
        fill: #cc3734;
      }

      .cls-3 {
        fill: #cbcaca;
      }

      .cls-4 {
        fill: #f1f1f1;
      }
    </style>
  </defs>
  <g id="Group_19" data-name="Group 19" transform="translate(-1436.865 -879.793)">
    <rect id="Rectangle_9" data-name="Rectangle 9" class="cls-1" width="38.565" height="11.686" rx="3" transform="matrix(-0.951, 0.309, -0.309, -0.951, 1523.543, 941.329)"/>
    <g id="Group_17" data-name="Group 17" transform="translate(1436.865 880.034)">
      <circle id="Ellipse_4" data-name="Ellipse 4" class="cls-2" cx="22.105" cy="22.105" r="22.105" transform="translate(4.811)"/>
      <path id="Path_35" data-name="Path 35" class="cls-2" d="M1410.669,1003.357s-26.257,40.157-13.128,65.9c29.346,1.03,37.841,0,37.841,0s-1.287-52.513-7.723-65.9S1410.669,1003.357,1410.669,1003.357Z" transform="translate(-1393.865 -962.031)"/>
    </g>
    <g id="Group_18" data-name="Group 18" transform="translate(1500.477 879.793)">
      <ellipse id="Ellipse_5" data-name="Ellipse 5" class="cls-3" cx="22.204" cy="22.204" rx="22.204" ry="22.204"/>
      <path id="Path_36" data-name="Path 36" class="cls-3" d="M1418.687,1003.383s26.374,40.337,13.187,66.194c-29.477,1.034-38.01,0-38.01,0s1.293-52.748,7.757-66.194S1418.687,1003.383,1418.687,1003.383Z" transform="translate(-1386.326 -961.872)"/>
    </g>
    <rect id="Rectangle_8" data-name="Rectangle 8" class="cls-4" width="38.393" height="11.634" rx="3" transform="matrix(0.951, 0.309, -0.309, 0.951, 1466.518, 930.231)"/>
  </g>
</svg>
