<svg xmlns="http://www.w3.org/2000/svg" viewBox="0 0 960.343 987.448">
  <defs>
    <style>
      .cls-1 {
        fill: #cc3734;
      }

      .cls-2, .cls-8 {
        fill: none;
      }

      .cls-2, .cls-4, .cls-5 {
        stroke: #707070;
      }

      .cls-3, .cls-5 {
        fill: #cbcaca;
      }

      .cls-4 {
        fill: #707070;
      }

      .cls-6, .cls-7 {
        stroke: none;
      }

      .cls-7 {
        fill: #313131;
      }
    </style>
  </defs>
  <g id="Group_10" data-name="Group 10" transform="translate(261.61 -14.216)">
    <g id="Path_2" data-name="Path 2" class="cls-1" transform="translate(-1271.461 61.728) rotate(-34)">
      <path class="cls-6" d="M 861.0748291015625 1571.516357421875 C 826.4501342773438 1571.516357421875 787.08935546875 1553.207153320313 744.0858154296875 1517.097412109375 C 689.1865844726563 1470.99853515625 664.2871704101563 1429.770751953125 667.9644775390625 1391.057861328125 C 673.2188110351563 1335.74267578125 736.5502319335938 1292.609130859375 804.882568359375 1254.283447265625 C 844.1398315429688 1130.964721679688 883.4090576171875 1104.97119140625 909.5250244140625 1104.97119140625 C 914.804443359375 1104.97119140625 918.7061767578125 1106.130493164063 920.95556640625 1107.040649414063 C 925.2650756835938 1107.368896484375 928.7294921875 1109.550415039063 930.352783203125 1113.016479492188 C 933.6937255859375 1120.149536132813 927.4017944335938 1127.699462890625 925.0332641601563 1130.541748046875 C 890.1961669921875 1183.927734375 892.3123779296875 1200.733154296875 894.86328125 1205.447998046875 C 896.418701171875 1208.323120117188 900.2981567382813 1209.780883789063 906.3936767578125 1209.780883789063 C 921.5269165039063 1209.780883789063 942.2792358398438 1200.863891601563 948.035400390625 1198.250366210938 L 1129.369384765625 965.9915771484375 L 1131.895385742188 940.2977905273438 L 1132.20703125 937.1273803710938 L 1134.705200195313 935.150390625 L 1257.335083007813 838.105224609375 L 1260.473754882813 835.621337890625 L 1264.284423828125 836.8462524414063 L 1290.286865234375 845.204345703125 L 1299.707641601563 848.2326049804688 L 1294.245727539063 856.4842529296875 L 1214.334838867188 977.2101440429688 L 1213.04736328125 979.1552734375 L 1210.8837890625 980.0270385742188 L 1174.807373046875 994.5631713867188 C 1160.337524414063 1013.984375 1026.169311523438 1194.135620117188 977.2998657226563 1262.313720703125 C 972.1148681640625 1295.108520507813 976.94921875 1306.6884765625 980.3385620117188 1310.68310546875 C 981.6712646484375 1312.253662109375 984.05712890625 1314.341796875 989.36767578125 1314.341674804688 C 1005.761596679688 1314.34130859375 1031.94482421875 1296.00927734375 1049.270751953125 1283.878540039063 L 1053.731201171875 1280.76318359375 L 1061.59619140625 1275.298095703125 L 1065.016479492188 1284.243774414063 C 1080.214721679688 1323.993774414063 1052.117553710938 1343.971313476563 976.8821411132813 1396.463745117188 C 955.450439453125 1494.913452148438 943.4024658203125 1519.513671875 938.8777465820313 1525.617065429688 C 935.5707397460938 1531.870727539063 912.5640869140625 1571.516357421875 861.0748291015625 1571.516357421875 Z"/>
      <path class="cls-7" d="M 861.0747680664063 1564.016357421875 C 911.734375 1564.016357421875 932.53369140625 1521.554565429688 932.53369140625 1521.554565429688 C 932.53369140625 1521.554565429688 944.5712280273438 1510.333129882813 970.177001953125 1391.996948242188 C 1044.7490234375 1339.969604492188 1071.2724609375 1321.606811523438 1058.010986328125 1286.922241210938 C 1039.501586914063 1299.783813476563 1009.6806640625 1321.841186523438 989.3678588867188 1321.841674804688 C 972.6240844726563 1321.842041015625 962.3409423828125 1306.855590820313 970.177001953125 1259.378295898438 C 1021.2861328125 1187.968627929688 1170.051513671875 988.3934936523438 1170.051513671875 988.3934936523438 L 1208.080810546875 973.0704956054688 L 1287.99169921875 852.3446044921875 L 1261.9892578125 843.9864501953125 L 1139.359375 941.0316162109375 L 1136.620361328125 968.8914794921875 L 952.83447265625 1204.290893554688 C 952.83447265625 1204.290893554688 926.0174560546875 1217.281005859375 906.3937377929688 1217.281005859375 C 883.7739868164063 1217.281005859375 870.71044921875 1200.029663085938 919.271728515625 1125.740112304688 C 928.016357421875 1115.2470703125 921.7692260742188 1114.497314453125 919.8065185546875 1114.497314453125 C 919.4794921875 1114.497314453125 919.271728515625 1114.518188476563 919.271728515625 1114.518188476563 C 919.271728515625 1114.518188476563 915.7298583984375 1112.47119140625 909.5250854492188 1112.47119140625 C 891.7367553710938 1112.47119140625 852.0543212890625 1129.2900390625 811.1369018554688 1259.378295898438 C 679.5389404296875 1332.828491210938 615.2701416015625 1399.137573242188 748.90869140625 1511.353759765625 C 796.3231811523438 1551.167236328125 833.217041015625 1564.016357421875 861.0747680664063 1564.016357421875 M 861.0748291015625 1579.016357421875 C 824.637939453125 1579.016357421875 783.6543579101563 1560.1162109375 739.262939453125 1522.841064453125 C 682.3343505859375 1475.0380859375 656.5701293945313 1431.699462890625 660.498046875 1390.3486328125 C 666.0087280273438 1332.335205078125 729.5149536132813 1288.163452148438 798.6393432617188 1249.189697265625 C 839.0108642578125 1123.988891601563 881.1251220703125 1097.47119140625 909.5250244140625 1097.47119140625 C 915.1979370117188 1097.47119140625 919.6651000976563 1098.581787109375 922.6925659179688 1099.678466796875 C 929.2078857421875 1100.511474609375 934.4945068359375 1104.1767578125 937.1448364257813 1109.835327148438 C 942.1915893554688 1120.61083984375 934.6844482421875 1130.613403320313 931.3663330078125 1134.653686523438 C 895.9254760742188 1189.0517578125 901.4047241210938 1201.765625 901.4644775390625 1201.888305664063 C 901.4614868164063 1201.862182617188 901.4902954101563 1201.850952148438 901.551025390625 1201.850952148438 C 901.9263916015625 1201.850952148438 903.5226440429688 1202.280883789063 906.3936767578125 1202.280883789063 C 917.905029296875 1202.280883789063 934.9833374023438 1195.818603515625 943.2560424804688 1192.184692382813 L 1122.118286132813 963.0916137695313 L 1124.431396484375 939.5639038085938 L 1125.0546875 933.2230224609375 L 1130.051025390625 929.2691650390625 L 1252.680908203125 832.2240600585938 L 1258.958251953125 827.25634765625 L 1266.579467773438 829.7060546875 L 1292.581909179688 838.0641479492188 L 1311.423706054688 844.12060546875 L 1300.499755859375 860.6239013671875 L 1220.5888671875 981.3497924804688 L 1218.013916015625 985.2400512695313 L 1213.686645507813 986.9835815429688 L 1179.563720703125 1000.732604980469 C 1160.0595703125 1026.91552734375 1032.897705078125 1197.71875 984.4381103515625 1265.229858398438 C 979.7303466796875 1296.4521484375 984.9307250976563 1304.503051757813 986.0572509765625 1305.830688476563 C 986.39892578125 1306.2333984375 986.9151611328125 1306.841674804688 989.3674926757813 1306.841674804688 C 1003.396789550781 1306.84130859375 1030.440185546875 1287.9072265625 1044.96875 1277.735107421875 L 1049.451538085938 1274.604125976563 L 1065.181274414063 1263.674194335938 L 1072.021850585938 1281.565307617188 C 1089.118408203125 1326.280395507813 1058.371337890625 1348.73779296875 983.581787109375 1400.934326171875 C 974.0565795898438 1444.361328125 957.9597778320313 1511.055541992188 945.349609375 1529.411987304688 C 941.0114135742188 1537.427856445313 915.8554077148438 1579.016357421875 861.0748291015625 1579.016357421875 Z"/>
    </g>
    <path id="Path_4" data-name="Path 4" class="cls-2" d="M762.089,891.908" transform="translate(-791.701 -132.405) rotate(-34)"/>
    <path id="Path_5" data-name="Path 5" class="cls-3" d="M762.292,947.881S759.04,973.4,703.175,1025.6c-50.327,25.717-42.112,50.719-38.575,58.574,26.467,67.864,101.34,27.366,105.59,121.3,13.93,39.289,45.361-53.613,45.361-53.613s2.99-47.8,20.849-64.589c17.5-17.5,99.771-54.138,90.127-67.746-22.109,8.965-100.25,76.242-153.163-76.97C768.076,935.353,762.292,947.881,762.292,947.881Z" transform="translate(-1012.241 241.988) rotate(-34)"/>
    <path id="Path_6" data-name="Path 6" class="cls-4" d="M660.088,1232.848l39.582,30.065L944.122,931.546l-31.933-21.539Z" transform="translate(-1052.275 -15.924) rotate(-34)"/>
    <g id="Rectangle_1" data-name="Rectangle 1" class="cls-5" transform="translate(172.016 651.171) rotate(5)">
      <rect class="cls-6" width="68.091" height="24.318" rx="3"/>
      <rect class="cls-8" x="0.5" y="0.5" width="67.091" height="23.318" rx="2.5"/>
    </g>
    <g id="Rectangle_2" data-name="Rectangle 2" class="cls-5" transform="translate(168.268 706.498) rotate(5)">
      <rect class="cls-6" width="68.091" height="24.318" rx="3"/>
      <rect class="cls-8" x="0.5" y="0.5" width="67.091" height="23.318" rx="2.5"/>
    </g>
    <g id="Rectangle_3" data-name="Rectangle 3" class="cls-4" transform="translate(161.507 767.34) rotate(5)">
      <rect class="cls-6" width="72.955" height="29.182" rx="1"/>
      <rect class="cls-8" x="0.5" y="0.5" width="71.955" height="28.182" rx="0.5"/>
    </g>
  </g>
</svg>
